<mxfile host="app.diagrams.net" modified="2023-07-14T11:29:58.559Z" agent="Mozilla/5.0 (Windows NT 10.0; Win64; x64) AppleWebKit/537.36 (KHTML, like Gecko) Chrome/114.0.0.0 Safari/537.36 Edg/114.0.1823.79" etag="5Hyifz49OAzTfFyLeMhC" version="21.6.2" type="device" pages="4">
  <diagram id="C5RBs43oDa-KdzZeNtuy" name="quick sort">
    <mxGraphModel dx="1834" dy="788" grid="1" gridSize="10" guides="1" tooltips="1" connect="1" arrows="1" fold="1" page="0" pageScale="1" pageWidth="827" pageHeight="1169" math="0" shadow="0">
      <root>
        <mxCell id="WIyWlLk6GJQsqaUBKTNV-0" />
        <mxCell id="WIyWlLk6GJQsqaUBKTNV-1" parent="WIyWlLk6GJQsqaUBKTNV-0" />
        <mxCell id="JS1NNQ1RBKOJhmVOapFc-2" value="" style="edgeStyle=orthogonalEdgeStyle;rounded=0;orthogonalLoop=1;jettySize=auto;html=1;" parent="WIyWlLk6GJQsqaUBKTNV-1" source="ZOthd3o8GA8e9ccbdgPO-1" target="JS1NNQ1RBKOJhmVOapFc-1" edge="1">
          <mxGeometry relative="1" as="geometry" />
        </mxCell>
        <mxCell id="ZOthd3o8GA8e9ccbdgPO-1" value="pivot = array[high]" style="rounded=1;whiteSpace=wrap;html=1;absoluteArcSize=1;arcSize=14;strokeWidth=2;" parent="WIyWlLk6GJQsqaUBKTNV-1" vertex="1">
          <mxGeometry x="40" y="120" width="160" height="40" as="geometry" />
        </mxCell>
        <mxCell id="JS1NNQ1RBKOJhmVOapFc-4" value="" style="edgeStyle=orthogonalEdgeStyle;rounded=0;orthogonalLoop=1;jettySize=auto;html=1;" parent="WIyWlLk6GJQsqaUBKTNV-1" source="JS1NNQ1RBKOJhmVOapFc-1" target="JS1NNQ1RBKOJhmVOapFc-3" edge="1">
          <mxGeometry relative="1" as="geometry" />
        </mxCell>
        <mxCell id="JS1NNQ1RBKOJhmVOapFc-1" value="i = low - 1" style="rounded=1;whiteSpace=wrap;html=1;absoluteArcSize=1;arcSize=14;strokeWidth=2;" parent="WIyWlLk6GJQsqaUBKTNV-1" vertex="1">
          <mxGeometry x="40" y="200" width="160" height="40" as="geometry" />
        </mxCell>
        <mxCell id="JS1NNQ1RBKOJhmVOapFc-6" value="" style="edgeStyle=orthogonalEdgeStyle;rounded=0;orthogonalLoop=1;jettySize=auto;html=1;" parent="WIyWlLk6GJQsqaUBKTNV-1" source="JS1NNQ1RBKOJhmVOapFc-3" target="JS1NNQ1RBKOJhmVOapFc-5" edge="1">
          <mxGeometry relative="1" as="geometry" />
        </mxCell>
        <mxCell id="JS1NNQ1RBKOJhmVOapFc-3" value="j = low" style="rounded=1;whiteSpace=wrap;html=1;absoluteArcSize=1;arcSize=14;strokeWidth=2;" parent="WIyWlLk6GJQsqaUBKTNV-1" vertex="1">
          <mxGeometry x="40" y="280" width="160" height="40" as="geometry" />
        </mxCell>
        <mxCell id="JS1NNQ1RBKOJhmVOapFc-11" value="" style="edgeStyle=orthogonalEdgeStyle;rounded=0;orthogonalLoop=1;jettySize=auto;html=1;" parent="WIyWlLk6GJQsqaUBKTNV-1" source="JS1NNQ1RBKOJhmVOapFc-5" target="JS1NNQ1RBKOJhmVOapFc-10" edge="1">
          <mxGeometry relative="1" as="geometry" />
        </mxCell>
        <mxCell id="JS1NNQ1RBKOJhmVOapFc-14" value="yes" style="edgeLabel;html=1;align=center;verticalAlign=middle;resizable=0;points=[];fontSize=14;" parent="JS1NNQ1RBKOJhmVOapFc-11" vertex="1" connectable="0">
          <mxGeometry x="-0.2786" y="1" relative="1" as="geometry">
            <mxPoint x="1" as="offset" />
          </mxGeometry>
        </mxCell>
        <mxCell id="JS1NNQ1RBKOJhmVOapFc-29" style="edgeStyle=orthogonalEdgeStyle;rounded=0;orthogonalLoop=1;jettySize=auto;html=1;exitX=1;exitY=0.5;exitDx=0;exitDy=0;exitPerimeter=0;entryX=0.5;entryY=0;entryDx=0;entryDy=0;" parent="WIyWlLk6GJQsqaUBKTNV-1" source="JS1NNQ1RBKOJhmVOapFc-5" target="JS1NNQ1RBKOJhmVOapFc-28" edge="1">
          <mxGeometry relative="1" as="geometry">
            <Array as="points">
              <mxPoint x="240" y="420" />
              <mxPoint x="240" y="820" />
              <mxPoint x="120" y="820" />
            </Array>
          </mxGeometry>
        </mxCell>
        <mxCell id="JS1NNQ1RBKOJhmVOapFc-30" value="no" style="edgeLabel;html=1;align=center;verticalAlign=middle;resizable=0;points=[];fontSize=14;" parent="JS1NNQ1RBKOJhmVOapFc-29" vertex="1" connectable="0">
          <mxGeometry x="-0.9334" y="1" relative="1" as="geometry">
            <mxPoint as="offset" />
          </mxGeometry>
        </mxCell>
        <mxCell id="JS1NNQ1RBKOJhmVOapFc-5" value="j &amp;lt;= (high - 1)?" style="strokeWidth=2;html=1;shape=mxgraph.flowchart.decision;whiteSpace=wrap;" parent="WIyWlLk6GJQsqaUBKTNV-1" vertex="1">
          <mxGeometry x="60" y="360" width="120" height="120" as="geometry" />
        </mxCell>
        <mxCell id="JS1NNQ1RBKOJhmVOapFc-19" value="" style="edgeStyle=orthogonalEdgeStyle;rounded=0;orthogonalLoop=1;jettySize=auto;html=1;" parent="WIyWlLk6GJQsqaUBKTNV-1" source="JS1NNQ1RBKOJhmVOapFc-10" target="JS1NNQ1RBKOJhmVOapFc-18" edge="1">
          <mxGeometry relative="1" as="geometry" />
        </mxCell>
        <mxCell id="JS1NNQ1RBKOJhmVOapFc-22" value="yes" style="edgeLabel;html=1;align=center;verticalAlign=middle;resizable=0;points=[];fontSize=14;" parent="JS1NNQ1RBKOJhmVOapFc-19" vertex="1" connectable="0">
          <mxGeometry x="-0.3452" y="1" relative="1" as="geometry">
            <mxPoint x="-1" as="offset" />
          </mxGeometry>
        </mxCell>
        <mxCell id="JS1NNQ1RBKOJhmVOapFc-24" value="" style="edgeStyle=orthogonalEdgeStyle;rounded=0;orthogonalLoop=1;jettySize=auto;html=1;" parent="WIyWlLk6GJQsqaUBKTNV-1" source="JS1NNQ1RBKOJhmVOapFc-10" target="JS1NNQ1RBKOJhmVOapFc-23" edge="1">
          <mxGeometry relative="1" as="geometry" />
        </mxCell>
        <mxCell id="JS1NNQ1RBKOJhmVOapFc-25" value="no" style="edgeLabel;html=1;align=center;verticalAlign=middle;resizable=0;points=[];fontSize=14;" parent="JS1NNQ1RBKOJhmVOapFc-24" vertex="1" connectable="0">
          <mxGeometry x="-0.0328" y="-2" relative="1" as="geometry">
            <mxPoint x="2" y="1" as="offset" />
          </mxGeometry>
        </mxCell>
        <mxCell id="JS1NNQ1RBKOJhmVOapFc-10" value="arr[j] &amp;lt;= pivot?" style="strokeWidth=2;html=1;shape=mxgraph.flowchart.decision;whiteSpace=wrap;" parent="WIyWlLk6GJQsqaUBKTNV-1" vertex="1">
          <mxGeometry x="60" y="520" width="120" height="120" as="geometry" />
        </mxCell>
        <mxCell id="JS1NNQ1RBKOJhmVOapFc-21" value="" style="edgeStyle=orthogonalEdgeStyle;rounded=0;orthogonalLoop=1;jettySize=auto;html=1;" parent="WIyWlLk6GJQsqaUBKTNV-1" source="JS1NNQ1RBKOJhmVOapFc-18" target="JS1NNQ1RBKOJhmVOapFc-20" edge="1">
          <mxGeometry relative="1" as="geometry" />
        </mxCell>
        <mxCell id="JS1NNQ1RBKOJhmVOapFc-18" value="swap array[i] with array[j]" style="rounded=1;whiteSpace=wrap;html=1;absoluteArcSize=1;arcSize=14;strokeWidth=2;" parent="WIyWlLk6GJQsqaUBKTNV-1" vertex="1">
          <mxGeometry x="40" y="680" width="160" height="40" as="geometry" />
        </mxCell>
        <mxCell id="JS1NNQ1RBKOJhmVOapFc-26" style="edgeStyle=orthogonalEdgeStyle;rounded=0;orthogonalLoop=1;jettySize=auto;html=1;exitX=0;exitY=0.5;exitDx=0;exitDy=0;entryX=0.5;entryY=1;entryDx=0;entryDy=0;" parent="WIyWlLk6GJQsqaUBKTNV-1" source="JS1NNQ1RBKOJhmVOapFc-20" target="JS1NNQ1RBKOJhmVOapFc-23" edge="1">
          <mxGeometry relative="1" as="geometry" />
        </mxCell>
        <mxCell id="JS1NNQ1RBKOJhmVOapFc-20" value="i = i + 1" style="rounded=1;whiteSpace=wrap;html=1;absoluteArcSize=1;arcSize=14;strokeWidth=2;" parent="WIyWlLk6GJQsqaUBKTNV-1" vertex="1">
          <mxGeometry x="40" y="760" width="160" height="40" as="geometry" />
        </mxCell>
        <mxCell id="JS1NNQ1RBKOJhmVOapFc-27" style="edgeStyle=orthogonalEdgeStyle;rounded=0;orthogonalLoop=1;jettySize=auto;html=1;exitX=0.5;exitY=0;exitDx=0;exitDy=0;" parent="WIyWlLk6GJQsqaUBKTNV-1" source="JS1NNQ1RBKOJhmVOapFc-23" edge="1">
          <mxGeometry relative="1" as="geometry">
            <mxPoint x="119.99999999999977" y="340" as="targetPoint" />
            <Array as="points">
              <mxPoint x="-60" y="340" />
            </Array>
          </mxGeometry>
        </mxCell>
        <mxCell id="JS1NNQ1RBKOJhmVOapFc-23" value="j = j + 1" style="rounded=1;whiteSpace=wrap;html=1;absoluteArcSize=1;arcSize=14;strokeWidth=2;" parent="WIyWlLk6GJQsqaUBKTNV-1" vertex="1">
          <mxGeometry x="-140" y="560" width="160" height="40" as="geometry" />
        </mxCell>
        <mxCell id="JS1NNQ1RBKOJhmVOapFc-38" value="" style="edgeStyle=orthogonalEdgeStyle;rounded=0;orthogonalLoop=1;jettySize=auto;html=1;" parent="WIyWlLk6GJQsqaUBKTNV-1" source="JS1NNQ1RBKOJhmVOapFc-28" target="JS1NNQ1RBKOJhmVOapFc-37" edge="1">
          <mxGeometry relative="1" as="geometry" />
        </mxCell>
        <mxCell id="JS1NNQ1RBKOJhmVOapFc-28" value="swap array[i] with array[high]" style="rounded=1;whiteSpace=wrap;html=1;absoluteArcSize=1;arcSize=14;strokeWidth=2;" parent="WIyWlLk6GJQsqaUBKTNV-1" vertex="1">
          <mxGeometry x="40" y="840" width="160" height="40" as="geometry" />
        </mxCell>
        <mxCell id="JS1NNQ1RBKOJhmVOapFc-36" style="edgeStyle=orthogonalEdgeStyle;rounded=0;orthogonalLoop=1;jettySize=auto;html=1;exitX=0.5;exitY=0.5;exitDx=0;exitDy=20;exitPerimeter=0;entryX=0.5;entryY=0;entryDx=0;entryDy=0;" parent="WIyWlLk6GJQsqaUBKTNV-1" source="JS1NNQ1RBKOJhmVOapFc-34" target="ZOthd3o8GA8e9ccbdgPO-1" edge="1">
          <mxGeometry relative="1" as="geometry" />
        </mxCell>
        <mxCell id="JS1NNQ1RBKOJhmVOapFc-34" value="partition(array[], low, high)" style="html=1;dashed=0;whiteSpace=wrap;shape=mxgraph.dfd.start;strokeWidth=2;" parent="WIyWlLk6GJQsqaUBKTNV-1" vertex="1">
          <mxGeometry x="40" y="40" width="160" height="40" as="geometry" />
        </mxCell>
        <mxCell id="JS1NNQ1RBKOJhmVOapFc-37" value="return i" style="html=1;dashed=0;whiteSpace=wrap;shape=mxgraph.dfd.start;strokeWidth=2;" parent="WIyWlLk6GJQsqaUBKTNV-1" vertex="1">
          <mxGeometry x="40" y="920" width="160" height="40" as="geometry" />
        </mxCell>
        <mxCell id="JS1NNQ1RBKOJhmVOapFc-41" value="" style="edgeStyle=orthogonalEdgeStyle;rounded=0;orthogonalLoop=1;jettySize=auto;html=1;" parent="WIyWlLk6GJQsqaUBKTNV-1" source="JS1NNQ1RBKOJhmVOapFc-39" target="JS1NNQ1RBKOJhmVOapFc-40" edge="1">
          <mxGeometry relative="1" as="geometry" />
        </mxCell>
        <mxCell id="JS1NNQ1RBKOJhmVOapFc-39" value="partition_r(array[], low, high)" style="html=1;dashed=0;whiteSpace=wrap;shape=mxgraph.dfd.start;strokeWidth=2;" parent="WIyWlLk6GJQsqaUBKTNV-1" vertex="1">
          <mxGeometry x="320" y="40" width="160" height="40" as="geometry" />
        </mxCell>
        <mxCell id="JS1NNQ1RBKOJhmVOapFc-43" value="" style="edgeStyle=orthogonalEdgeStyle;rounded=0;orthogonalLoop=1;jettySize=auto;html=1;" parent="WIyWlLk6GJQsqaUBKTNV-1" source="JS1NNQ1RBKOJhmVOapFc-40" target="JS1NNQ1RBKOJhmVOapFc-42" edge="1">
          <mxGeometry relative="1" as="geometry" />
        </mxCell>
        <mxCell id="JS1NNQ1RBKOJhmVOapFc-40" value="r = random number between low and high" style="rounded=1;whiteSpace=wrap;html=1;absoluteArcSize=1;arcSize=14;strokeWidth=2;" parent="WIyWlLk6GJQsqaUBKTNV-1" vertex="1">
          <mxGeometry x="320" y="120" width="160" height="40" as="geometry" />
        </mxCell>
        <mxCell id="JS1NNQ1RBKOJhmVOapFc-50" value="" style="edgeStyle=orthogonalEdgeStyle;rounded=0;orthogonalLoop=1;jettySize=auto;html=1;" parent="WIyWlLk6GJQsqaUBKTNV-1" source="JS1NNQ1RBKOJhmVOapFc-42" target="JS1NNQ1RBKOJhmVOapFc-49" edge="1">
          <mxGeometry relative="1" as="geometry" />
        </mxCell>
        <mxCell id="JS1NNQ1RBKOJhmVOapFc-42" value="swap array[r] and array[high]" style="rounded=1;whiteSpace=wrap;html=1;absoluteArcSize=1;arcSize=14;strokeWidth=2;" parent="WIyWlLk6GJQsqaUBKTNV-1" vertex="1">
          <mxGeometry x="320" y="200" width="160" height="40" as="geometry" />
        </mxCell>
        <mxCell id="JS1NNQ1RBKOJhmVOapFc-44" value="return p" style="html=1;dashed=0;whiteSpace=wrap;shape=mxgraph.dfd.start;strokeWidth=2;" parent="WIyWlLk6GJQsqaUBKTNV-1" vertex="1">
          <mxGeometry x="320" y="360" width="160" height="40" as="geometry" />
        </mxCell>
        <mxCell id="JS1NNQ1RBKOJhmVOapFc-51" value="" style="edgeStyle=orthogonalEdgeStyle;rounded=0;orthogonalLoop=1;jettySize=auto;html=1;" parent="WIyWlLk6GJQsqaUBKTNV-1" source="JS1NNQ1RBKOJhmVOapFc-49" target="JS1NNQ1RBKOJhmVOapFc-44" edge="1">
          <mxGeometry relative="1" as="geometry" />
        </mxCell>
        <mxCell id="JS1NNQ1RBKOJhmVOapFc-49" value="p = partition(array, low, high)" style="verticalLabelPosition=middle;verticalAlign=middle;html=1;shape=process;whiteSpace=wrap;rounded=1;size=0.14;arcSize=6;labelPosition=center;align=center;strokeWidth=2;" parent="WIyWlLk6GJQsqaUBKTNV-1" vertex="1">
          <mxGeometry x="320" y="280" width="160" height="40" as="geometry" />
        </mxCell>
        <mxCell id="JS1NNQ1RBKOJhmVOapFc-54" value="" style="edgeStyle=orthogonalEdgeStyle;rounded=0;orthogonalLoop=1;jettySize=auto;html=1;" parent="WIyWlLk6GJQsqaUBKTNV-1" source="JS1NNQ1RBKOJhmVOapFc-52" target="JS1NNQ1RBKOJhmVOapFc-53" edge="1">
          <mxGeometry relative="1" as="geometry" />
        </mxCell>
        <mxCell id="JS1NNQ1RBKOJhmVOapFc-52" value="quicksort(array[], low, high)" style="html=1;dashed=0;whiteSpace=wrap;shape=mxgraph.dfd.start;strokeWidth=2;" parent="WIyWlLk6GJQsqaUBKTNV-1" vertex="1">
          <mxGeometry x="600" y="40" width="160" height="40" as="geometry" />
        </mxCell>
        <mxCell id="JS1NNQ1RBKOJhmVOapFc-56" value="" style="edgeStyle=orthogonalEdgeStyle;rounded=0;orthogonalLoop=1;jettySize=auto;html=1;" parent="WIyWlLk6GJQsqaUBKTNV-1" source="JS1NNQ1RBKOJhmVOapFc-53" target="JS1NNQ1RBKOJhmVOapFc-55" edge="1">
          <mxGeometry relative="1" as="geometry" />
        </mxCell>
        <mxCell id="JS1NNQ1RBKOJhmVOapFc-63" value="yes" style="edgeLabel;html=1;align=center;verticalAlign=middle;resizable=0;points=[];fontSize=14;" parent="JS1NNQ1RBKOJhmVOapFc-56" vertex="1" connectable="0">
          <mxGeometry x="-0.3017" y="-1" relative="1" as="geometry">
            <mxPoint x="1" as="offset" />
          </mxGeometry>
        </mxCell>
        <mxCell id="JS1NNQ1RBKOJhmVOapFc-64" style="edgeStyle=orthogonalEdgeStyle;rounded=0;orthogonalLoop=1;jettySize=auto;html=1;exitX=1;exitY=0.5;exitDx=0;exitDy=0;exitPerimeter=0;" parent="WIyWlLk6GJQsqaUBKTNV-1" source="JS1NNQ1RBKOJhmVOapFc-53" edge="1">
          <mxGeometry relative="1" as="geometry">
            <mxPoint x="680" y="500" as="targetPoint" />
            <Array as="points">
              <mxPoint x="800" y="180" />
              <mxPoint x="800" y="500" />
            </Array>
          </mxGeometry>
        </mxCell>
        <mxCell id="JS1NNQ1RBKOJhmVOapFc-65" value="no" style="edgeLabel;html=1;align=center;verticalAlign=middle;resizable=0;points=[];fontSize=14;" parent="JS1NNQ1RBKOJhmVOapFc-64" vertex="1" connectable="0">
          <mxGeometry x="-0.8732" y="-1" relative="1" as="geometry">
            <mxPoint y="-2" as="offset" />
          </mxGeometry>
        </mxCell>
        <mxCell id="JS1NNQ1RBKOJhmVOapFc-53" value="low &amp;lt; high?" style="strokeWidth=2;html=1;shape=mxgraph.flowchart.decision;whiteSpace=wrap;" parent="WIyWlLk6GJQsqaUBKTNV-1" vertex="1">
          <mxGeometry x="620" y="120" width="120" height="120" as="geometry" />
        </mxCell>
        <mxCell id="JS1NNQ1RBKOJhmVOapFc-60" value="" style="edgeStyle=orthogonalEdgeStyle;rounded=0;orthogonalLoop=1;jettySize=auto;html=1;" parent="WIyWlLk6GJQsqaUBKTNV-1" source="JS1NNQ1RBKOJhmVOapFc-55" target="JS1NNQ1RBKOJhmVOapFc-57" edge="1">
          <mxGeometry relative="1" as="geometry" />
        </mxCell>
        <mxCell id="JS1NNQ1RBKOJhmVOapFc-55" value="p = partition_r(array, low, high)" style="verticalLabelPosition=middle;verticalAlign=middle;html=1;shape=process;whiteSpace=wrap;rounded=1;size=0.14;arcSize=6;labelPosition=center;align=center;strokeWidth=2;" parent="WIyWlLk6GJQsqaUBKTNV-1" vertex="1">
          <mxGeometry x="600" y="280" width="160" height="40" as="geometry" />
        </mxCell>
        <mxCell id="JS1NNQ1RBKOJhmVOapFc-61" value="" style="edgeStyle=orthogonalEdgeStyle;rounded=0;orthogonalLoop=1;jettySize=auto;html=1;" parent="WIyWlLk6GJQsqaUBKTNV-1" source="JS1NNQ1RBKOJhmVOapFc-57" target="JS1NNQ1RBKOJhmVOapFc-58" edge="1">
          <mxGeometry relative="1" as="geometry" />
        </mxCell>
        <mxCell id="JS1NNQ1RBKOJhmVOapFc-57" value="quicksort(array, low, p - 1)" style="verticalLabelPosition=middle;verticalAlign=middle;html=1;shape=process;whiteSpace=wrap;rounded=1;size=0.14;arcSize=6;labelPosition=center;align=center;strokeWidth=2;" parent="WIyWlLk6GJQsqaUBKTNV-1" vertex="1">
          <mxGeometry x="600" y="360" width="160" height="40" as="geometry" />
        </mxCell>
        <mxCell id="JS1NNQ1RBKOJhmVOapFc-62" value="" style="edgeStyle=orthogonalEdgeStyle;rounded=0;orthogonalLoop=1;jettySize=auto;html=1;" parent="WIyWlLk6GJQsqaUBKTNV-1" source="JS1NNQ1RBKOJhmVOapFc-58" target="JS1NNQ1RBKOJhmVOapFc-59" edge="1">
          <mxGeometry relative="1" as="geometry" />
        </mxCell>
        <mxCell id="JS1NNQ1RBKOJhmVOapFc-58" value="quicksort(array, p + 1, high)" style="verticalLabelPosition=middle;verticalAlign=middle;html=1;shape=process;whiteSpace=wrap;rounded=1;size=0.14;arcSize=6;labelPosition=center;align=center;strokeWidth=2;" parent="WIyWlLk6GJQsqaUBKTNV-1" vertex="1">
          <mxGeometry x="600" y="440" width="160" height="40" as="geometry" />
        </mxCell>
        <mxCell id="JS1NNQ1RBKOJhmVOapFc-59" value="END" style="html=1;dashed=0;whiteSpace=wrap;shape=mxgraph.dfd.start;strokeWidth=2;" parent="WIyWlLk6GJQsqaUBKTNV-1" vertex="1">
          <mxGeometry x="600" y="520" width="160" height="40" as="geometry" />
        </mxCell>
      </root>
    </mxGraphModel>
  </diagram>
  <diagram id="nVxkfaieTgda5EGStZQi" name="radix sort">
    <mxGraphModel dx="1434" dy="1188" grid="1" gridSize="10" guides="1" tooltips="1" connect="1" arrows="1" fold="1" page="0" pageScale="1" pageWidth="850" pageHeight="1100" math="0" shadow="0">
      <root>
        <mxCell id="0" />
        <mxCell id="1" parent="0" />
        <mxCell id="1oeBaII8raDBcbjgEjQx-7" value="" style="edgeStyle=orthogonalEdgeStyle;rounded=0;orthogonalLoop=1;jettySize=auto;html=1;" parent="1" source="JxANDoU70-Lnq7nJM9AE-1" target="1oeBaII8raDBcbjgEjQx-4" edge="1">
          <mxGeometry relative="1" as="geometry" />
        </mxCell>
        <mxCell id="JxANDoU70-Lnq7nJM9AE-1" value="radixSort(array)" style="html=1;dashed=0;whiteSpace=wrap;shape=mxgraph.dfd.start;strokeWidth=2;" parent="1" vertex="1">
          <mxGeometry x="760" y="-360" width="160" height="40" as="geometry" />
        </mxCell>
        <mxCell id="6iA_qLqkw0yUxsFO22lf-2" value="" style="edgeStyle=orthogonalEdgeStyle;rounded=0;orthogonalLoop=1;jettySize=auto;html=1;" parent="1" source="JxANDoU70-Lnq7nJM9AE-2" target="6iA_qLqkw0yUxsFO22lf-1" edge="1">
          <mxGeometry relative="1" as="geometry" />
        </mxCell>
        <mxCell id="JxANDoU70-Lnq7nJM9AE-2" value="countingSort(array, d)" style="html=1;dashed=0;whiteSpace=wrap;shape=mxgraph.dfd.start;strokeWidth=2;" parent="1" vertex="1">
          <mxGeometry x="160" y="-360" width="160" height="40" as="geometry" />
        </mxCell>
        <mxCell id="1oeBaII8raDBcbjgEjQx-23" value="" style="edgeStyle=orthogonalEdgeStyle;rounded=0;orthogonalLoop=1;jettySize=auto;html=1;" parent="1" source="6iA_qLqkw0yUxsFO22lf-1" target="1oeBaII8raDBcbjgEjQx-21" edge="1">
          <mxGeometry relative="1" as="geometry" />
        </mxCell>
        <mxCell id="6iA_qLqkw0yUxsFO22lf-1" value="max = largest element among dth place elements" style="rounded=1;whiteSpace=wrap;html=1;absoluteArcSize=1;arcSize=14;strokeWidth=2;" parent="1" vertex="1">
          <mxGeometry x="160" y="-280" width="160" height="40" as="geometry" />
        </mxCell>
        <mxCell id="1oeBaII8raDBcbjgEjQx-8" value="" style="edgeStyle=orthogonalEdgeStyle;rounded=0;orthogonalLoop=1;jettySize=auto;html=1;" parent="1" source="1oeBaII8raDBcbjgEjQx-4" target="1oeBaII8raDBcbjgEjQx-5" edge="1">
          <mxGeometry relative="1" as="geometry" />
        </mxCell>
        <mxCell id="1oeBaII8raDBcbjgEjQx-4" value="d = maximum number of digits in largest element" style="rounded=1;whiteSpace=wrap;html=1;absoluteArcSize=1;arcSize=14;strokeWidth=2;" parent="1" vertex="1">
          <mxGeometry x="760" y="-280" width="160" height="40" as="geometry" />
        </mxCell>
        <mxCell id="1oeBaII8raDBcbjgEjQx-9" value="" style="edgeStyle=orthogonalEdgeStyle;rounded=0;orthogonalLoop=1;jettySize=auto;html=1;" parent="1" source="1oeBaII8raDBcbjgEjQx-5" target="1oeBaII8raDBcbjgEjQx-6" edge="1">
          <mxGeometry relative="1" as="geometry" />
        </mxCell>
        <mxCell id="1oeBaII8raDBcbjgEjQx-5" value="create d buckets of size 0-9" style="rounded=1;whiteSpace=wrap;html=1;absoluteArcSize=1;arcSize=14;strokeWidth=2;" parent="1" vertex="1">
          <mxGeometry x="760" y="-200" width="160" height="40" as="geometry" />
        </mxCell>
        <mxCell id="1oeBaII8raDBcbjgEjQx-11" value="" style="edgeStyle=orthogonalEdgeStyle;rounded=0;orthogonalLoop=1;jettySize=auto;html=1;" parent="1" source="1oeBaII8raDBcbjgEjQx-6" target="1oeBaII8raDBcbjgEjQx-10" edge="1">
          <mxGeometry relative="1" as="geometry" />
        </mxCell>
        <mxCell id="1oeBaII8raDBcbjgEjQx-6" value="i = 0" style="rounded=1;whiteSpace=wrap;html=1;absoluteArcSize=1;arcSize=14;strokeWidth=2;" parent="1" vertex="1">
          <mxGeometry x="760" y="-120" width="160" height="40" as="geometry" />
        </mxCell>
        <mxCell id="1oeBaII8raDBcbjgEjQx-13" value="" style="edgeStyle=orthogonalEdgeStyle;rounded=0;orthogonalLoop=1;jettySize=auto;html=1;" parent="1" source="1oeBaII8raDBcbjgEjQx-10" target="1oeBaII8raDBcbjgEjQx-12" edge="1">
          <mxGeometry relative="1" as="geometry" />
        </mxCell>
        <mxCell id="1oeBaII8raDBcbjgEjQx-14" value="yes" style="edgeLabel;html=1;align=center;verticalAlign=middle;resizable=0;points=[];fontSize=14;" parent="1oeBaII8raDBcbjgEjQx-13" vertex="1" connectable="0">
          <mxGeometry x="-0.2262" y="-1" relative="1" as="geometry">
            <mxPoint as="offset" />
          </mxGeometry>
        </mxCell>
        <mxCell id="1oeBaII8raDBcbjgEjQx-19" style="edgeStyle=orthogonalEdgeStyle;rounded=0;orthogonalLoop=1;jettySize=auto;html=1;exitX=1;exitY=0.5;exitDx=0;exitDy=0;exitPerimeter=0;entryX=0.5;entryY=0.5;entryDx=0;entryDy=-20;entryPerimeter=0;" parent="1" source="1oeBaII8raDBcbjgEjQx-10" target="1oeBaII8raDBcbjgEjQx-18" edge="1">
          <mxGeometry relative="1" as="geometry">
            <Array as="points">
              <mxPoint x="960" y="20" />
              <mxPoint x="960" y="260" />
              <mxPoint x="840" y="260" />
            </Array>
          </mxGeometry>
        </mxCell>
        <mxCell id="1oeBaII8raDBcbjgEjQx-20" value="no" style="edgeLabel;html=1;align=center;verticalAlign=middle;resizable=0;points=[];fontSize=14;" parent="1oeBaII8raDBcbjgEjQx-19" vertex="1" connectable="0">
          <mxGeometry x="-0.8841" y="-1" relative="1" as="geometry">
            <mxPoint y="-2" as="offset" />
          </mxGeometry>
        </mxCell>
        <mxCell id="1oeBaII8raDBcbjgEjQx-10" value="i &amp;lt; d?" style="strokeWidth=2;html=1;shape=mxgraph.flowchart.decision;whiteSpace=wrap;" parent="1" vertex="1">
          <mxGeometry x="780" y="-40" width="120" height="120" as="geometry" />
        </mxCell>
        <mxCell id="1oeBaII8raDBcbjgEjQx-16" value="" style="edgeStyle=orthogonalEdgeStyle;rounded=0;orthogonalLoop=1;jettySize=auto;html=1;" parent="1" source="1oeBaII8raDBcbjgEjQx-12" target="1oeBaII8raDBcbjgEjQx-15" edge="1">
          <mxGeometry relative="1" as="geometry" />
        </mxCell>
        <mxCell id="1oeBaII8raDBcbjgEjQx-12" value="sort elements according to ith place digits with counting sort" style="rounded=1;whiteSpace=wrap;html=1;absoluteArcSize=1;arcSize=14;strokeWidth=2;" parent="1" vertex="1">
          <mxGeometry x="760" y="120" width="160" height="40" as="geometry" />
        </mxCell>
        <mxCell id="1oeBaII8raDBcbjgEjQx-17" style="edgeStyle=orthogonalEdgeStyle;rounded=0;orthogonalLoop=1;jettySize=auto;html=1;exitX=0;exitY=0.5;exitDx=0;exitDy=0;" parent="1" source="1oeBaII8raDBcbjgEjQx-15" edge="1">
          <mxGeometry relative="1" as="geometry">
            <mxPoint x="840" y="-60" as="targetPoint" />
            <Array as="points">
              <mxPoint x="720" y="220" />
              <mxPoint x="720" y="-60" />
            </Array>
          </mxGeometry>
        </mxCell>
        <mxCell id="1oeBaII8raDBcbjgEjQx-15" value="i = i + 1" style="rounded=1;whiteSpace=wrap;html=1;absoluteArcSize=1;arcSize=14;strokeWidth=2;" parent="1" vertex="1">
          <mxGeometry x="760" y="200" width="160" height="40" as="geometry" />
        </mxCell>
        <mxCell id="1oeBaII8raDBcbjgEjQx-18" value="END" style="html=1;dashed=0;whiteSpace=wrap;shape=mxgraph.dfd.start;strokeWidth=2;" parent="1" vertex="1">
          <mxGeometry x="760" y="280" width="160" height="40" as="geometry" />
        </mxCell>
        <mxCell id="1oeBaII8raDBcbjgEjQx-24" value="" style="edgeStyle=orthogonalEdgeStyle;rounded=0;orthogonalLoop=1;jettySize=auto;html=1;" parent="1" source="1oeBaII8raDBcbjgEjQx-21" target="1oeBaII8raDBcbjgEjQx-22" edge="1">
          <mxGeometry relative="1" as="geometry" />
        </mxCell>
        <mxCell id="1oeBaII8raDBcbjgEjQx-21" value="initialise count array with all zeros" style="rounded=1;whiteSpace=wrap;html=1;absoluteArcSize=1;arcSize=14;strokeWidth=2;" parent="1" vertex="1">
          <mxGeometry x="160" y="-200" width="160" height="40" as="geometry" />
        </mxCell>
        <mxCell id="1oeBaII8raDBcbjgEjQx-30" value="" style="edgeStyle=orthogonalEdgeStyle;rounded=0;orthogonalLoop=1;jettySize=auto;html=1;" parent="1" source="1oeBaII8raDBcbjgEjQx-22" target="1oeBaII8raDBcbjgEjQx-25" edge="1">
          <mxGeometry relative="1" as="geometry" />
        </mxCell>
        <mxCell id="1oeBaII8raDBcbjgEjQx-22" value="j = 0" style="rounded=1;whiteSpace=wrap;html=1;absoluteArcSize=1;arcSize=14;strokeWidth=2;" parent="1" vertex="1">
          <mxGeometry x="160" y="-120" width="160" height="40" as="geometry" />
        </mxCell>
        <mxCell id="1oeBaII8raDBcbjgEjQx-28" value="" style="edgeStyle=orthogonalEdgeStyle;rounded=0;orthogonalLoop=1;jettySize=auto;html=1;" parent="1" source="1oeBaII8raDBcbjgEjQx-25" target="1oeBaII8raDBcbjgEjQx-26" edge="1">
          <mxGeometry relative="1" as="geometry" />
        </mxCell>
        <mxCell id="1oeBaII8raDBcbjgEjQx-31" value="yes" style="edgeLabel;html=1;align=center;verticalAlign=middle;resizable=0;points=[];fontSize=14;" parent="1oeBaII8raDBcbjgEjQx-28" vertex="1" connectable="0">
          <mxGeometry x="-0.2886" y="-1" relative="1" as="geometry">
            <mxPoint as="offset" />
          </mxGeometry>
        </mxCell>
        <mxCell id="1oeBaII8raDBcbjgEjQx-36" style="edgeStyle=orthogonalEdgeStyle;rounded=0;orthogonalLoop=1;jettySize=auto;html=1;exitX=1;exitY=0.5;exitDx=0;exitDy=0;exitPerimeter=0;entryX=0;entryY=0.5;entryDx=0;entryDy=0;" parent="1" source="1oeBaII8raDBcbjgEjQx-25" target="1oeBaII8raDBcbjgEjQx-35" edge="1">
          <mxGeometry relative="1" as="geometry">
            <Array as="points">
              <mxPoint x="360" y="20" />
              <mxPoint x="360" y="-340" />
            </Array>
          </mxGeometry>
        </mxCell>
        <mxCell id="1oeBaII8raDBcbjgEjQx-37" value="no" style="edgeLabel;html=1;align=center;verticalAlign=middle;resizable=0;points=[];fontSize=14;" parent="1oeBaII8raDBcbjgEjQx-36" vertex="1" connectable="0">
          <mxGeometry x="-0.8951" y="1" relative="1" as="geometry">
            <mxPoint as="offset" />
          </mxGeometry>
        </mxCell>
        <mxCell id="1oeBaII8raDBcbjgEjQx-25" value="j &amp;lt; size?" style="strokeWidth=2;html=1;shape=mxgraph.flowchart.decision;whiteSpace=wrap;" parent="1" vertex="1">
          <mxGeometry x="180" y="-40" width="120" height="120" as="geometry" />
        </mxCell>
        <mxCell id="1oeBaII8raDBcbjgEjQx-29" value="" style="edgeStyle=orthogonalEdgeStyle;rounded=0;orthogonalLoop=1;jettySize=auto;html=1;" parent="1" source="1oeBaII8raDBcbjgEjQx-26" target="1oeBaII8raDBcbjgEjQx-27" edge="1">
          <mxGeometry relative="1" as="geometry" />
        </mxCell>
        <mxCell id="1oeBaII8raDBcbjgEjQx-26" value="find total count of each unique digit in dth place of elements" style="rounded=1;whiteSpace=wrap;html=1;absoluteArcSize=1;arcSize=14;strokeWidth=2;" parent="1" vertex="1">
          <mxGeometry x="160" y="120" width="160" height="40" as="geometry" />
        </mxCell>
        <mxCell id="1oeBaII8raDBcbjgEjQx-33" value="" style="edgeStyle=orthogonalEdgeStyle;rounded=0;orthogonalLoop=1;jettySize=auto;html=1;" parent="1" source="1oeBaII8raDBcbjgEjQx-27" target="1oeBaII8raDBcbjgEjQx-32" edge="1">
          <mxGeometry relative="1" as="geometry" />
        </mxCell>
        <mxCell id="1oeBaII8raDBcbjgEjQx-27" value="store count at jth index in count array" style="rounded=1;whiteSpace=wrap;html=1;absoluteArcSize=1;arcSize=14;strokeWidth=2;" parent="1" vertex="1">
          <mxGeometry x="160" y="200" width="160" height="40" as="geometry" />
        </mxCell>
        <mxCell id="1oeBaII8raDBcbjgEjQx-34" style="edgeStyle=orthogonalEdgeStyle;rounded=0;orthogonalLoop=1;jettySize=auto;html=1;exitX=0;exitY=0.5;exitDx=0;exitDy=0;" parent="1" source="1oeBaII8raDBcbjgEjQx-32" edge="1">
          <mxGeometry relative="1" as="geometry">
            <mxPoint x="240" y="-60" as="targetPoint" />
            <Array as="points">
              <mxPoint x="120" y="300" />
              <mxPoint x="120" y="-60" />
            </Array>
          </mxGeometry>
        </mxCell>
        <mxCell id="1oeBaII8raDBcbjgEjQx-32" value="j = j + 1" style="rounded=1;whiteSpace=wrap;html=1;absoluteArcSize=1;arcSize=14;strokeWidth=2;" parent="1" vertex="1">
          <mxGeometry x="160" y="280" width="160" height="40" as="geometry" />
        </mxCell>
        <mxCell id="1oeBaII8raDBcbjgEjQx-39" value="" style="edgeStyle=orthogonalEdgeStyle;rounded=0;orthogonalLoop=1;jettySize=auto;html=1;" parent="1" source="1oeBaII8raDBcbjgEjQx-35" target="1oeBaII8raDBcbjgEjQx-38" edge="1">
          <mxGeometry relative="1" as="geometry" />
        </mxCell>
        <mxCell id="1oeBaII8raDBcbjgEjQx-35" value="i = 1" style="rounded=1;whiteSpace=wrap;html=1;absoluteArcSize=1;arcSize=14;strokeWidth=2;" parent="1" vertex="1">
          <mxGeometry x="440" y="-360" width="160" height="40" as="geometry" />
        </mxCell>
        <mxCell id="1oeBaII8raDBcbjgEjQx-41" value="" style="edgeStyle=orthogonalEdgeStyle;rounded=0;orthogonalLoop=1;jettySize=auto;html=1;" parent="1" source="1oeBaII8raDBcbjgEjQx-38" target="1oeBaII8raDBcbjgEjQx-40" edge="1">
          <mxGeometry relative="1" as="geometry" />
        </mxCell>
        <mxCell id="1oeBaII8raDBcbjgEjQx-42" value="yes" style="edgeLabel;html=1;align=center;verticalAlign=middle;resizable=0;points=[];fontSize=14;" parent="1oeBaII8raDBcbjgEjQx-41" vertex="1" connectable="0">
          <mxGeometry x="-0.2257" y="1" relative="1" as="geometry">
            <mxPoint as="offset" />
          </mxGeometry>
        </mxCell>
        <mxCell id="1oeBaII8raDBcbjgEjQx-47" style="edgeStyle=orthogonalEdgeStyle;rounded=0;orthogonalLoop=1;jettySize=auto;html=1;exitX=1;exitY=0.5;exitDx=0;exitDy=0;exitPerimeter=0;entryX=0.5;entryY=0;entryDx=0;entryDy=0;entryPerimeter=0;" parent="1" source="1oeBaII8raDBcbjgEjQx-38" target="1oeBaII8raDBcbjgEjQx-46" edge="1">
          <mxGeometry relative="1" as="geometry">
            <Array as="points">
              <mxPoint x="640" y="-220" />
              <mxPoint x="640" y="20" />
              <mxPoint x="520" y="20" />
            </Array>
          </mxGeometry>
        </mxCell>
        <mxCell id="1oeBaII8raDBcbjgEjQx-48" value="no" style="edgeLabel;html=1;align=center;verticalAlign=middle;resizable=0;points=[];fontSize=14;" parent="1oeBaII8raDBcbjgEjQx-47" vertex="1" connectable="0">
          <mxGeometry x="-0.8708" y="2" relative="1" as="geometry">
            <mxPoint as="offset" />
          </mxGeometry>
        </mxCell>
        <mxCell id="1oeBaII8raDBcbjgEjQx-38" value="i &amp;lt; max?" style="strokeWidth=2;html=1;shape=mxgraph.flowchart.decision;whiteSpace=wrap;" parent="1" vertex="1">
          <mxGeometry x="460" y="-280" width="120" height="120" as="geometry" />
        </mxCell>
        <mxCell id="1oeBaII8raDBcbjgEjQx-44" value="" style="edgeStyle=orthogonalEdgeStyle;rounded=0;orthogonalLoop=1;jettySize=auto;html=1;" parent="1" source="1oeBaII8raDBcbjgEjQx-40" target="1oeBaII8raDBcbjgEjQx-43" edge="1">
          <mxGeometry relative="1" as="geometry" />
        </mxCell>
        <mxCell id="1oeBaII8raDBcbjgEjQx-40" value="store cumulative sum in count array" style="rounded=1;whiteSpace=wrap;html=1;absoluteArcSize=1;arcSize=14;strokeWidth=2;" parent="1" vertex="1">
          <mxGeometry x="440" y="-120" width="160" height="40" as="geometry" />
        </mxCell>
        <mxCell id="1oeBaII8raDBcbjgEjQx-45" style="edgeStyle=orthogonalEdgeStyle;rounded=0;orthogonalLoop=1;jettySize=auto;html=1;exitX=0;exitY=0.5;exitDx=0;exitDy=0;" parent="1" source="1oeBaII8raDBcbjgEjQx-43" edge="1">
          <mxGeometry relative="1" as="geometry">
            <mxPoint x="520" y="-302.2857142857143" as="targetPoint" />
            <Array as="points">
              <mxPoint x="400" y="-20" />
              <mxPoint x="400" y="-302" />
            </Array>
          </mxGeometry>
        </mxCell>
        <mxCell id="1oeBaII8raDBcbjgEjQx-43" value="i = i + 1" style="rounded=1;whiteSpace=wrap;html=1;absoluteArcSize=1;arcSize=14;strokeWidth=2;" parent="1" vertex="1">
          <mxGeometry x="440" y="-40" width="160" height="40" as="geometry" />
        </mxCell>
        <mxCell id="1oeBaII8raDBcbjgEjQx-54" style="edgeStyle=orthogonalEdgeStyle;rounded=0;orthogonalLoop=1;jettySize=auto;html=1;exitX=0.5;exitY=1;exitDx=0;exitDy=0;exitPerimeter=0;entryX=0.5;entryY=0;entryDx=0;entryDy=0;" parent="1" source="1oeBaII8raDBcbjgEjQx-46" target="1oeBaII8raDBcbjgEjQx-49" edge="1">
          <mxGeometry relative="1" as="geometry" />
        </mxCell>
        <mxCell id="1oeBaII8raDBcbjgEjQx-59" value="yes" style="edgeLabel;html=1;align=center;verticalAlign=middle;resizable=0;points=[];fontSize=14;" parent="1oeBaII8raDBcbjgEjQx-54" vertex="1" connectable="0">
          <mxGeometry x="-0.2633" y="-1" relative="1" as="geometry">
            <mxPoint as="offset" />
          </mxGeometry>
        </mxCell>
        <mxCell id="1oeBaII8raDBcbjgEjQx-58" style="edgeStyle=orthogonalEdgeStyle;rounded=0;orthogonalLoop=1;jettySize=auto;html=1;exitX=1;exitY=0.5;exitDx=0;exitDy=0;exitPerimeter=0;entryX=0.5;entryY=0.5;entryDx=0;entryDy=-20;entryPerimeter=0;" parent="1" source="1oeBaII8raDBcbjgEjQx-46" target="1oeBaII8raDBcbjgEjQx-51" edge="1">
          <mxGeometry relative="1" as="geometry">
            <Array as="points">
              <mxPoint x="640" y="100" />
              <mxPoint x="640" y="420" />
              <mxPoint x="520" y="420" />
            </Array>
          </mxGeometry>
        </mxCell>
        <mxCell id="1oeBaII8raDBcbjgEjQx-60" value="no" style="edgeLabel;html=1;align=center;verticalAlign=middle;resizable=0;points=[];fontSize=14;" parent="1oeBaII8raDBcbjgEjQx-58" vertex="1" connectable="0">
          <mxGeometry x="-0.9077" y="1" relative="1" as="geometry">
            <mxPoint as="offset" />
          </mxGeometry>
        </mxCell>
        <mxCell id="1oeBaII8raDBcbjgEjQx-46" value="j &amp;gt; 1?" style="strokeWidth=2;html=1;shape=mxgraph.flowchart.decision;whiteSpace=wrap;" parent="1" vertex="1">
          <mxGeometry x="460" y="40" width="120" height="120" as="geometry" />
        </mxCell>
        <mxCell id="1oeBaII8raDBcbjgEjQx-55" style="edgeStyle=orthogonalEdgeStyle;rounded=0;orthogonalLoop=1;jettySize=auto;html=1;exitX=0.5;exitY=1;exitDx=0;exitDy=0;entryX=0.5;entryY=0;entryDx=0;entryDy=0;" parent="1" source="1oeBaII8raDBcbjgEjQx-49" target="1oeBaII8raDBcbjgEjQx-50" edge="1">
          <mxGeometry relative="1" as="geometry" />
        </mxCell>
        <mxCell id="1oeBaII8raDBcbjgEjQx-49" value="restore elements to array" style="rounded=1;whiteSpace=wrap;html=1;absoluteArcSize=1;arcSize=14;strokeWidth=2;" parent="1" vertex="1">
          <mxGeometry x="440" y="200" width="160" height="40" as="geometry" />
        </mxCell>
        <mxCell id="1oeBaII8raDBcbjgEjQx-56" value="" style="edgeStyle=orthogonalEdgeStyle;rounded=0;orthogonalLoop=1;jettySize=auto;html=1;" parent="1" source="1oeBaII8raDBcbjgEjQx-50" target="1oeBaII8raDBcbjgEjQx-53" edge="1">
          <mxGeometry relative="1" as="geometry" />
        </mxCell>
        <mxCell id="1oeBaII8raDBcbjgEjQx-50" value="decrease count of each element restored by 1" style="rounded=1;whiteSpace=wrap;html=1;absoluteArcSize=1;arcSize=14;strokeWidth=2;" parent="1" vertex="1">
          <mxGeometry x="440" y="280" width="160" height="40" as="geometry" />
        </mxCell>
        <mxCell id="1oeBaII8raDBcbjgEjQx-51" value="END" style="html=1;dashed=0;whiteSpace=wrap;shape=mxgraph.dfd.start;strokeWidth=2;" parent="1" vertex="1">
          <mxGeometry x="440" y="440" width="160" height="40" as="geometry" />
        </mxCell>
        <mxCell id="1oeBaII8raDBcbjgEjQx-57" style="edgeStyle=orthogonalEdgeStyle;rounded=0;orthogonalLoop=1;jettySize=auto;html=1;exitX=0;exitY=0.5;exitDx=0;exitDy=0;" parent="1" source="1oeBaII8raDBcbjgEjQx-53" edge="1">
          <mxGeometry relative="1" as="geometry">
            <mxPoint x="520" y="20" as="targetPoint" />
            <Array as="points">
              <mxPoint x="400" y="380" />
              <mxPoint x="400" y="20" />
            </Array>
          </mxGeometry>
        </mxCell>
        <mxCell id="1oeBaII8raDBcbjgEjQx-53" value="j = j - 1" style="rounded=1;whiteSpace=wrap;html=1;absoluteArcSize=1;arcSize=14;strokeWidth=2;" parent="1" vertex="1">
          <mxGeometry x="440" y="360" width="160" height="40" as="geometry" />
        </mxCell>
      </root>
    </mxGraphModel>
  </diagram>
  <diagram id="jX0eUa4DBT6Stq_55Xzh" name="counting sort">
    <mxGraphModel dx="1195" dy="657" grid="1" gridSize="10" guides="1" tooltips="1" connect="1" arrows="1" fold="1" page="0" pageScale="1" pageWidth="850" pageHeight="1100" math="0" shadow="0">
      <root>
        <mxCell id="0" />
        <mxCell id="1" parent="0" />
        <mxCell id="2WDyYHlUGZugUkpnZqWx-43" value="" style="edgeStyle=orthogonalEdgeStyle;rounded=0;orthogonalLoop=1;jettySize=auto;html=1;" parent="1" source="2WDyYHlUGZugUkpnZqWx-44" target="2WDyYHlUGZugUkpnZqWx-46" edge="1">
          <mxGeometry relative="1" as="geometry" />
        </mxCell>
        <mxCell id="2WDyYHlUGZugUkpnZqWx-44" value="countingSort(array, size)" style="html=1;dashed=0;whiteSpace=wrap;shape=mxgraph.dfd.start;strokeWidth=2;" parent="1" vertex="1">
          <mxGeometry x="200" y="80" width="160" height="40" as="geometry" />
        </mxCell>
        <mxCell id="2WDyYHlUGZugUkpnZqWx-45" value="" style="edgeStyle=orthogonalEdgeStyle;rounded=0;orthogonalLoop=1;jettySize=auto;html=1;" parent="1" source="2WDyYHlUGZugUkpnZqWx-46" target="2WDyYHlUGZugUkpnZqWx-48" edge="1">
          <mxGeometry relative="1" as="geometry" />
        </mxCell>
        <mxCell id="2WDyYHlUGZugUkpnZqWx-46" value="max = find largest element in array" style="rounded=1;whiteSpace=wrap;html=1;absoluteArcSize=1;arcSize=14;strokeWidth=2;" parent="1" vertex="1">
          <mxGeometry x="200" y="160" width="160" height="40" as="geometry" />
        </mxCell>
        <mxCell id="2WDyYHlUGZugUkpnZqWx-47" value="" style="edgeStyle=orthogonalEdgeStyle;rounded=0;orthogonalLoop=1;jettySize=auto;html=1;" parent="1" source="2WDyYHlUGZugUkpnZqWx-48" target="2WDyYHlUGZugUkpnZqWx-50" edge="1">
          <mxGeometry relative="1" as="geometry" />
        </mxCell>
        <mxCell id="2WDyYHlUGZugUkpnZqWx-48" value="initialise count array with all zeros" style="rounded=1;whiteSpace=wrap;html=1;absoluteArcSize=1;arcSize=14;strokeWidth=2;" parent="1" vertex="1">
          <mxGeometry x="200" y="240" width="160" height="40" as="geometry" />
        </mxCell>
        <mxCell id="2WDyYHlUGZugUkpnZqWx-49" value="" style="edgeStyle=orthogonalEdgeStyle;rounded=0;orthogonalLoop=1;jettySize=auto;html=1;" parent="1" source="2WDyYHlUGZugUkpnZqWx-50" target="2WDyYHlUGZugUkpnZqWx-55" edge="1">
          <mxGeometry relative="1" as="geometry" />
        </mxCell>
        <mxCell id="2WDyYHlUGZugUkpnZqWx-50" value="j = 0" style="rounded=1;whiteSpace=wrap;html=1;absoluteArcSize=1;arcSize=14;strokeWidth=2;" parent="1" vertex="1">
          <mxGeometry x="200" y="320" width="160" height="40" as="geometry" />
        </mxCell>
        <mxCell id="2WDyYHlUGZugUkpnZqWx-51" value="" style="edgeStyle=orthogonalEdgeStyle;rounded=0;orthogonalLoop=1;jettySize=auto;html=1;" parent="1" source="2WDyYHlUGZugUkpnZqWx-55" target="2WDyYHlUGZugUkpnZqWx-57" edge="1">
          <mxGeometry relative="1" as="geometry" />
        </mxCell>
        <mxCell id="2WDyYHlUGZugUkpnZqWx-52" value="yes" style="edgeLabel;html=1;align=center;verticalAlign=middle;resizable=0;points=[];fontSize=14;" parent="2WDyYHlUGZugUkpnZqWx-51" vertex="1" connectable="0">
          <mxGeometry x="-0.2886" y="-1" relative="1" as="geometry">
            <mxPoint as="offset" />
          </mxGeometry>
        </mxCell>
        <mxCell id="2WDyYHlUGZugUkpnZqWx-53" style="edgeStyle=orthogonalEdgeStyle;rounded=0;orthogonalLoop=1;jettySize=auto;html=1;exitX=1;exitY=0.5;exitDx=0;exitDy=0;exitPerimeter=0;entryX=0.5;entryY=0;entryDx=0;entryDy=0;" parent="1" source="2WDyYHlUGZugUkpnZqWx-55" target="2WDyYHlUGZugUkpnZqWx-63" edge="1">
          <mxGeometry relative="1" as="geometry">
            <Array as="points">
              <mxPoint x="400" y="460" />
              <mxPoint x="400" y="780" />
              <mxPoint x="280" y="780" />
            </Array>
          </mxGeometry>
        </mxCell>
        <mxCell id="2WDyYHlUGZugUkpnZqWx-54" value="no" style="edgeLabel;html=1;align=center;verticalAlign=middle;resizable=0;points=[];fontSize=14;" parent="2WDyYHlUGZugUkpnZqWx-53" vertex="1" connectable="0">
          <mxGeometry x="-0.8951" y="1" relative="1" as="geometry">
            <mxPoint as="offset" />
          </mxGeometry>
        </mxCell>
        <mxCell id="2WDyYHlUGZugUkpnZqWx-55" value="j &amp;lt; size?" style="strokeWidth=2;html=1;shape=mxgraph.flowchart.decision;whiteSpace=wrap;" parent="1" vertex="1">
          <mxGeometry x="220" y="400" width="120" height="120" as="geometry" />
        </mxCell>
        <mxCell id="2WDyYHlUGZugUkpnZqWx-56" value="" style="edgeStyle=orthogonalEdgeStyle;rounded=0;orthogonalLoop=1;jettySize=auto;html=1;" parent="1" source="2WDyYHlUGZugUkpnZqWx-57" target="2WDyYHlUGZugUkpnZqWx-59" edge="1">
          <mxGeometry relative="1" as="geometry" />
        </mxCell>
        <mxCell id="2WDyYHlUGZugUkpnZqWx-57" value="find total count of each unique element" style="rounded=1;whiteSpace=wrap;html=1;absoluteArcSize=1;arcSize=14;strokeWidth=2;" parent="1" vertex="1">
          <mxGeometry x="200" y="560" width="160" height="40" as="geometry" />
        </mxCell>
        <mxCell id="2WDyYHlUGZugUkpnZqWx-58" value="" style="edgeStyle=orthogonalEdgeStyle;rounded=0;orthogonalLoop=1;jettySize=auto;html=1;" parent="1" source="2WDyYHlUGZugUkpnZqWx-59" target="2WDyYHlUGZugUkpnZqWx-61" edge="1">
          <mxGeometry relative="1" as="geometry" />
        </mxCell>
        <mxCell id="2WDyYHlUGZugUkpnZqWx-59" value="store count at jth index in count array" style="rounded=1;whiteSpace=wrap;html=1;absoluteArcSize=1;arcSize=14;strokeWidth=2;" parent="1" vertex="1">
          <mxGeometry x="200" y="640" width="160" height="40" as="geometry" />
        </mxCell>
        <mxCell id="2WDyYHlUGZugUkpnZqWx-60" style="edgeStyle=orthogonalEdgeStyle;rounded=0;orthogonalLoop=1;jettySize=auto;html=1;exitX=0;exitY=0.5;exitDx=0;exitDy=0;" parent="1" source="2WDyYHlUGZugUkpnZqWx-61" edge="1">
          <mxGeometry relative="1" as="geometry">
            <mxPoint x="280" y="380" as="targetPoint" />
            <Array as="points">
              <mxPoint x="160" y="740" />
              <mxPoint x="160" y="380" />
            </Array>
          </mxGeometry>
        </mxCell>
        <mxCell id="2WDyYHlUGZugUkpnZqWx-61" value="j = j + 1" style="rounded=1;whiteSpace=wrap;html=1;absoluteArcSize=1;arcSize=14;strokeWidth=2;" parent="1" vertex="1">
          <mxGeometry x="200" y="720" width="160" height="40" as="geometry" />
        </mxCell>
        <mxCell id="2WDyYHlUGZugUkpnZqWx-62" value="" style="edgeStyle=orthogonalEdgeStyle;rounded=0;orthogonalLoop=1;jettySize=auto;html=1;exitX=1;exitY=0.5;exitDx=0;exitDy=0;" parent="1" source="2WDyYHlUGZugUkpnZqWx-63" target="2WDyYHlUGZugUkpnZqWx-68" edge="1">
          <mxGeometry relative="1" as="geometry">
            <mxPoint x="300" y="870" as="sourcePoint" />
            <Array as="points">
              <mxPoint x="410" y="820" />
              <mxPoint x="410" y="140" />
            </Array>
          </mxGeometry>
        </mxCell>
        <mxCell id="2WDyYHlUGZugUkpnZqWx-63" value="i = 1" style="rounded=1;whiteSpace=wrap;html=1;absoluteArcSize=1;arcSize=14;strokeWidth=2;" parent="1" vertex="1">
          <mxGeometry x="200" y="800" width="160" height="40" as="geometry" />
        </mxCell>
        <mxCell id="2WDyYHlUGZugUkpnZqWx-64" value="" style="edgeStyle=orthogonalEdgeStyle;rounded=0;orthogonalLoop=1;jettySize=auto;html=1;" parent="1" source="2WDyYHlUGZugUkpnZqWx-68" target="2WDyYHlUGZugUkpnZqWx-70" edge="1">
          <mxGeometry relative="1" as="geometry" />
        </mxCell>
        <mxCell id="2WDyYHlUGZugUkpnZqWx-65" value="yes" style="edgeLabel;html=1;align=center;verticalAlign=middle;resizable=0;points=[];fontSize=14;" parent="2WDyYHlUGZugUkpnZqWx-64" vertex="1" connectable="0">
          <mxGeometry x="-0.2257" y="1" relative="1" as="geometry">
            <mxPoint as="offset" />
          </mxGeometry>
        </mxCell>
        <mxCell id="2WDyYHlUGZugUkpnZqWx-66" style="edgeStyle=orthogonalEdgeStyle;rounded=0;orthogonalLoop=1;jettySize=auto;html=1;exitX=1;exitY=0.5;exitDx=0;exitDy=0;exitPerimeter=0;entryX=0.5;entryY=0;entryDx=0;entryDy=0;entryPerimeter=0;" parent="1" source="2WDyYHlUGZugUkpnZqWx-68" target="2WDyYHlUGZugUkpnZqWx-77" edge="1">
          <mxGeometry relative="1" as="geometry">
            <Array as="points">
              <mxPoint x="680" y="140" />
              <mxPoint x="680" y="380" />
              <mxPoint x="560" y="380" />
            </Array>
          </mxGeometry>
        </mxCell>
        <mxCell id="2WDyYHlUGZugUkpnZqWx-67" value="no" style="edgeLabel;html=1;align=center;verticalAlign=middle;resizable=0;points=[];fontSize=14;" parent="2WDyYHlUGZugUkpnZqWx-66" vertex="1" connectable="0">
          <mxGeometry x="-0.8708" y="2" relative="1" as="geometry">
            <mxPoint as="offset" />
          </mxGeometry>
        </mxCell>
        <mxCell id="2WDyYHlUGZugUkpnZqWx-68" value="i &amp;lt; max?" style="strokeWidth=2;html=1;shape=mxgraph.flowchart.decision;whiteSpace=wrap;" parent="1" vertex="1">
          <mxGeometry x="500" y="80" width="120" height="120" as="geometry" />
        </mxCell>
        <mxCell id="2WDyYHlUGZugUkpnZqWx-69" value="" style="edgeStyle=orthogonalEdgeStyle;rounded=0;orthogonalLoop=1;jettySize=auto;html=1;" parent="1" source="2WDyYHlUGZugUkpnZqWx-70" target="2WDyYHlUGZugUkpnZqWx-72" edge="1">
          <mxGeometry relative="1" as="geometry" />
        </mxCell>
        <mxCell id="2WDyYHlUGZugUkpnZqWx-70" value="store cumulative sum in count array" style="rounded=1;whiteSpace=wrap;html=1;absoluteArcSize=1;arcSize=14;strokeWidth=2;" parent="1" vertex="1">
          <mxGeometry x="480" y="240" width="160" height="40" as="geometry" />
        </mxCell>
        <mxCell id="2WDyYHlUGZugUkpnZqWx-71" style="edgeStyle=orthogonalEdgeStyle;rounded=0;orthogonalLoop=1;jettySize=auto;html=1;exitX=0;exitY=0.5;exitDx=0;exitDy=0;" parent="1" source="2WDyYHlUGZugUkpnZqWx-72" edge="1">
          <mxGeometry relative="1" as="geometry">
            <mxPoint x="410" y="820" as="targetPoint" />
            <Array as="points">
              <mxPoint x="430" y="340" />
              <mxPoint x="430" y="820" />
            </Array>
          </mxGeometry>
        </mxCell>
        <mxCell id="2WDyYHlUGZugUkpnZqWx-72" value="i = i + 1" style="rounded=1;whiteSpace=wrap;html=1;absoluteArcSize=1;arcSize=14;strokeWidth=2;" parent="1" vertex="1">
          <mxGeometry x="480" y="320" width="160" height="40" as="geometry" />
        </mxCell>
        <mxCell id="2WDyYHlUGZugUkpnZqWx-73" style="edgeStyle=orthogonalEdgeStyle;rounded=0;orthogonalLoop=1;jettySize=auto;html=1;exitX=0.5;exitY=1;exitDx=0;exitDy=0;exitPerimeter=0;entryX=0.5;entryY=0;entryDx=0;entryDy=0;" parent="1" source="2WDyYHlUGZugUkpnZqWx-77" target="2WDyYHlUGZugUkpnZqWx-79" edge="1">
          <mxGeometry relative="1" as="geometry" />
        </mxCell>
        <mxCell id="2WDyYHlUGZugUkpnZqWx-74" value="yes" style="edgeLabel;html=1;align=center;verticalAlign=middle;resizable=0;points=[];fontSize=14;" parent="2WDyYHlUGZugUkpnZqWx-73" vertex="1" connectable="0">
          <mxGeometry x="-0.2633" y="-1" relative="1" as="geometry">
            <mxPoint as="offset" />
          </mxGeometry>
        </mxCell>
        <mxCell id="2WDyYHlUGZugUkpnZqWx-75" style="edgeStyle=orthogonalEdgeStyle;rounded=0;orthogonalLoop=1;jettySize=auto;html=1;exitX=1;exitY=0.5;exitDx=0;exitDy=0;exitPerimeter=0;entryX=0.5;entryY=0.5;entryDx=0;entryDy=-20;entryPerimeter=0;" parent="1" source="2WDyYHlUGZugUkpnZqWx-77" target="2WDyYHlUGZugUkpnZqWx-82" edge="1">
          <mxGeometry relative="1" as="geometry">
            <Array as="points">
              <mxPoint x="680" y="460" />
              <mxPoint x="680" y="780" />
              <mxPoint x="560" y="780" />
            </Array>
          </mxGeometry>
        </mxCell>
        <mxCell id="2WDyYHlUGZugUkpnZqWx-76" value="no" style="edgeLabel;html=1;align=center;verticalAlign=middle;resizable=0;points=[];fontSize=14;" parent="2WDyYHlUGZugUkpnZqWx-75" vertex="1" connectable="0">
          <mxGeometry x="-0.9077" y="1" relative="1" as="geometry">
            <mxPoint as="offset" />
          </mxGeometry>
        </mxCell>
        <mxCell id="2WDyYHlUGZugUkpnZqWx-77" value="j &amp;gt; 1?" style="strokeWidth=2;html=1;shape=mxgraph.flowchart.decision;whiteSpace=wrap;" parent="1" vertex="1">
          <mxGeometry x="500" y="400" width="120" height="120" as="geometry" />
        </mxCell>
        <mxCell id="2WDyYHlUGZugUkpnZqWx-78" style="edgeStyle=orthogonalEdgeStyle;rounded=0;orthogonalLoop=1;jettySize=auto;html=1;exitX=0.5;exitY=1;exitDx=0;exitDy=0;entryX=0.5;entryY=0;entryDx=0;entryDy=0;" parent="1" source="2WDyYHlUGZugUkpnZqWx-79" target="2WDyYHlUGZugUkpnZqWx-81" edge="1">
          <mxGeometry relative="1" as="geometry" />
        </mxCell>
        <mxCell id="2WDyYHlUGZugUkpnZqWx-79" value="restore elements to array" style="rounded=1;whiteSpace=wrap;html=1;absoluteArcSize=1;arcSize=14;strokeWidth=2;" parent="1" vertex="1">
          <mxGeometry x="480" y="560" width="160" height="40" as="geometry" />
        </mxCell>
        <mxCell id="2WDyYHlUGZugUkpnZqWx-80" value="" style="edgeStyle=orthogonalEdgeStyle;rounded=0;orthogonalLoop=1;jettySize=auto;html=1;" parent="1" source="2WDyYHlUGZugUkpnZqWx-81" target="2WDyYHlUGZugUkpnZqWx-84" edge="1">
          <mxGeometry relative="1" as="geometry" />
        </mxCell>
        <mxCell id="2WDyYHlUGZugUkpnZqWx-81" value="decrease count of each element restored by 1" style="rounded=1;whiteSpace=wrap;html=1;absoluteArcSize=1;arcSize=14;strokeWidth=2;" parent="1" vertex="1">
          <mxGeometry x="480" y="640" width="160" height="40" as="geometry" />
        </mxCell>
        <mxCell id="2WDyYHlUGZugUkpnZqWx-82" value="END" style="html=1;dashed=0;whiteSpace=wrap;shape=mxgraph.dfd.start;strokeWidth=2;" parent="1" vertex="1">
          <mxGeometry x="480" y="800" width="160" height="40" as="geometry" />
        </mxCell>
        <mxCell id="2WDyYHlUGZugUkpnZqWx-83" style="edgeStyle=orthogonalEdgeStyle;rounded=0;orthogonalLoop=1;jettySize=auto;html=1;exitX=0;exitY=0.5;exitDx=0;exitDy=0;" parent="1" source="2WDyYHlUGZugUkpnZqWx-84" edge="1">
          <mxGeometry relative="1" as="geometry">
            <mxPoint x="560" y="380" as="targetPoint" />
            <Array as="points">
              <mxPoint x="440" y="740" />
              <mxPoint x="440" y="380" />
            </Array>
          </mxGeometry>
        </mxCell>
        <mxCell id="2WDyYHlUGZugUkpnZqWx-84" value="j = j - 1" style="rounded=1;whiteSpace=wrap;html=1;absoluteArcSize=1;arcSize=14;strokeWidth=2;" parent="1" vertex="1">
          <mxGeometry x="480" y="720" width="160" height="40" as="geometry" />
        </mxCell>
      </root>
    </mxGraphModel>
  </diagram>
  <diagram id="p9Bnad8O-t7sL0pYEx7T" name="system">
    <mxGraphModel dx="1595" dy="-143" grid="1" gridSize="10" guides="1" tooltips="1" connect="1" arrows="1" fold="1" page="0" pageScale="1" pageWidth="850" pageHeight="1100" math="0" shadow="0">
      <root>
        <mxCell id="0" />
        <mxCell id="1" parent="0" />
        <mxCell id="oxNlAbWa7UMrTLLy3-Y4-2" value="" style="edgeStyle=orthogonalEdgeStyle;rounded=0;orthogonalLoop=1;jettySize=auto;html=1;exitX=0.5;exitY=1;exitDx=0;exitDy=0;" parent="1" source="OpWjDsvbnIPF4W7kNHAf-1" target="ut9o5k0LKUpKmpLfhHZH-2" edge="1">
          <mxGeometry relative="1" as="geometry">
            <mxPoint x="260" y="1290" as="sourcePoint" />
          </mxGeometry>
        </mxCell>
        <mxCell id="OpWjDsvbnIPF4W7kNHAf-2" style="edgeStyle=orthogonalEdgeStyle;rounded=0;orthogonalLoop=1;jettySize=auto;html=1;exitX=0.5;exitY=0.5;exitDx=0;exitDy=20;exitPerimeter=0;entryX=0.5;entryY=0;entryDx=0;entryDy=0;" parent="1" source="dXI-XTHTZBQKXRGL6XCw-1" target="OpWjDsvbnIPF4W7kNHAf-1" edge="1">
          <mxGeometry relative="1" as="geometry" />
        </mxCell>
        <mxCell id="dXI-XTHTZBQKXRGL6XCw-1" value="START" style="html=1;dashed=0;whiteSpace=wrap;shape=mxgraph.dfd.start;strokeWidth=2;" parent="1" vertex="1">
          <mxGeometry x="160" y="1160" width="160" height="40" as="geometry" />
        </mxCell>
        <mxCell id="oxNlAbWa7UMrTLLy3-Y4-3" value="" style="edgeStyle=orthogonalEdgeStyle;rounded=0;orthogonalLoop=1;jettySize=auto;html=1;" parent="1" source="ut9o5k0LKUpKmpLfhHZH-2" target="oxNlAbWa7UMrTLLy3-Y4-1" edge="1">
          <mxGeometry relative="1" as="geometry" />
        </mxCell>
        <mxCell id="ut9o5k0LKUpKmpLfhHZH-2" value="print login and &lt;br&gt;register menu" style="shape=parallelogram;html=1;strokeWidth=2;perimeter=parallelogramPerimeter;whiteSpace=wrap;rounded=1;arcSize=12;size=0.23;" parent="1" vertex="1">
          <mxGeometry x="160" y="1320" width="160" height="40" as="geometry" />
        </mxCell>
        <mxCell id="oxNlAbWa7UMrTLLy3-Y4-5" value="" style="edgeStyle=orthogonalEdgeStyle;rounded=0;orthogonalLoop=1;jettySize=auto;html=1;" parent="1" source="oxNlAbWa7UMrTLLy3-Y4-1" target="oxNlAbWa7UMrTLLy3-Y4-4" edge="1">
          <mxGeometry relative="1" as="geometry" />
        </mxCell>
        <mxCell id="oxNlAbWa7UMrTLLy3-Y4-6" value="no" style="edgeLabel;html=1;align=center;verticalAlign=middle;resizable=0;points=[];fontSize=14;" parent="oxNlAbWa7UMrTLLy3-Y4-5" vertex="1" connectable="0">
          <mxGeometry x="-0.1917" relative="1" as="geometry">
            <mxPoint as="offset" />
          </mxGeometry>
        </mxCell>
        <mxCell id="oxNlAbWa7UMrTLLy3-Y4-10" style="edgeStyle=orthogonalEdgeStyle;rounded=0;orthogonalLoop=1;jettySize=auto;html=1;exitX=1;exitY=0.5;exitDx=0;exitDy=0;exitPerimeter=0;entryX=0;entryY=0.5;entryDx=0;entryDy=0;entryPerimeter=0;" parent="1" source="oxNlAbWa7UMrTLLy3-Y4-1" target="oxNlAbWa7UMrTLLy3-Y4-9" edge="1">
          <mxGeometry relative="1" as="geometry" />
        </mxCell>
        <mxCell id="oxNlAbWa7UMrTLLy3-Y4-12" value="yes" style="edgeLabel;html=1;align=center;verticalAlign=middle;resizable=0;points=[];fontSize=14;" parent="oxNlAbWa7UMrTLLy3-Y4-10" vertex="1" connectable="0">
          <mxGeometry x="-0.8712" y="-1" relative="1" as="geometry">
            <mxPoint y="-2" as="offset" />
          </mxGeometry>
        </mxCell>
        <mxCell id="oxNlAbWa7UMrTLLy3-Y4-1" value="login?" style="strokeWidth=2;html=1;shape=mxgraph.flowchart.decision;whiteSpace=wrap;" parent="1" vertex="1">
          <mxGeometry x="180" y="1400" width="120" height="120" as="geometry" />
        </mxCell>
        <mxCell id="oxNlAbWa7UMrTLLy3-Y4-4" value="register?" style="strokeWidth=2;html=1;shape=mxgraph.flowchart.decision;whiteSpace=wrap;" parent="1" vertex="1">
          <mxGeometry x="180" y="1560" width="120" height="120" as="geometry" />
        </mxCell>
        <mxCell id="oxNlAbWa7UMrTLLy3-Y4-14" value="" style="edgeStyle=orthogonalEdgeStyle;rounded=0;orthogonalLoop=1;jettySize=auto;html=1;" parent="1" source="oxNlAbWa7UMrTLLy3-Y4-9" target="oxNlAbWa7UMrTLLy3-Y4-13" edge="1">
          <mxGeometry relative="1" as="geometry" />
        </mxCell>
        <mxCell id="oxNlAbWa7UMrTLLy3-Y4-15" value="no" style="edgeLabel;html=1;align=center;verticalAlign=middle;resizable=0;points=[];fontSize=14;" parent="oxNlAbWa7UMrTLLy3-Y4-14" vertex="1" connectable="0">
          <mxGeometry x="-0.1083" y="-1" relative="1" as="geometry">
            <mxPoint as="offset" />
          </mxGeometry>
        </mxCell>
        <mxCell id="oxNlAbWa7UMrTLLy3-Y4-25" style="edgeStyle=orthogonalEdgeStyle;rounded=0;orthogonalLoop=1;jettySize=auto;html=1;exitX=1;exitY=0.5;exitDx=0;exitDy=0;exitPerimeter=0;" parent="1" source="oxNlAbWa7UMrTLLy3-Y4-9" target="oxNlAbWa7UMrTLLy3-Y4-24" edge="1">
          <mxGeometry relative="1" as="geometry" />
        </mxCell>
        <mxCell id="oxNlAbWa7UMrTLLy3-Y4-26" value="yes" style="edgeLabel;html=1;align=center;verticalAlign=middle;resizable=0;points=[];fontSize=14;" parent="oxNlAbWa7UMrTLLy3-Y4-25" vertex="1" connectable="0">
          <mxGeometry x="-0.1748" relative="1" as="geometry">
            <mxPoint as="offset" />
          </mxGeometry>
        </mxCell>
        <mxCell id="oxNlAbWa7UMrTLLy3-Y4-9" value="tenant?" style="strokeWidth=2;html=1;shape=mxgraph.flowchart.decision;whiteSpace=wrap;" parent="1" vertex="1">
          <mxGeometry x="400" y="1160" width="120" height="120" as="geometry" />
        </mxCell>
        <mxCell id="oxNlAbWa7UMrTLLy3-Y4-17" value="" style="edgeStyle=orthogonalEdgeStyle;rounded=0;orthogonalLoop=1;jettySize=auto;html=1;" parent="1" source="oxNlAbWa7UMrTLLy3-Y4-13" target="oxNlAbWa7UMrTLLy3-Y4-16" edge="1">
          <mxGeometry relative="1" as="geometry" />
        </mxCell>
        <mxCell id="oxNlAbWa7UMrTLLy3-Y4-18" value="no" style="edgeLabel;html=1;align=center;verticalAlign=middle;resizable=0;points=[];fontSize=14;" parent="oxNlAbWa7UMrTLLy3-Y4-17" vertex="1" connectable="0">
          <mxGeometry x="-0.275" y="2" relative="1" as="geometry">
            <mxPoint as="offset" />
          </mxGeometry>
        </mxCell>
        <mxCell id="elQyF4cigWkoirkmCGE0-59" value="" style="edgeStyle=orthogonalEdgeStyle;rounded=0;orthogonalLoop=1;jettySize=auto;html=1;" edge="1" parent="1" source="oxNlAbWa7UMrTLLy3-Y4-13" target="elQyF4cigWkoirkmCGE0-58">
          <mxGeometry relative="1" as="geometry" />
        </mxCell>
        <mxCell id="elQyF4cigWkoirkmCGE0-60" value="yes" style="edgeLabel;html=1;align=center;verticalAlign=middle;resizable=0;points=[];fontSize=14;" vertex="1" connectable="0" parent="elQyF4cigWkoirkmCGE0-59">
          <mxGeometry x="-0.1231" y="2" relative="1" as="geometry">
            <mxPoint y="1" as="offset" />
          </mxGeometry>
        </mxCell>
        <mxCell id="oxNlAbWa7UMrTLLy3-Y4-13" value="manager?" style="strokeWidth=2;html=1;shape=mxgraph.flowchart.decision;whiteSpace=wrap;" parent="1" vertex="1">
          <mxGeometry x="400" y="1320" width="120" height="120" as="geometry" />
        </mxCell>
        <mxCell id="oxNlAbWa7UMrTLLy3-Y4-20" value="" style="edgeStyle=orthogonalEdgeStyle;rounded=0;orthogonalLoop=1;jettySize=auto;html=1;" parent="1" source="oxNlAbWa7UMrTLLy3-Y4-16" target="oxNlAbWa7UMrTLLy3-Y4-19" edge="1">
          <mxGeometry relative="1" as="geometry" />
        </mxCell>
        <mxCell id="oxNlAbWa7UMrTLLy3-Y4-21" value="no" style="edgeLabel;html=1;align=center;verticalAlign=middle;resizable=0;points=[];fontSize=14;" parent="oxNlAbWa7UMrTLLy3-Y4-20" vertex="1" connectable="0">
          <mxGeometry x="-0.3333" y="-1" relative="1" as="geometry">
            <mxPoint as="offset" />
          </mxGeometry>
        </mxCell>
        <mxCell id="oxNlAbWa7UMrTLLy3-Y4-16" value="admin?" style="strokeWidth=2;html=1;shape=mxgraph.flowchart.decision;whiteSpace=wrap;" parent="1" vertex="1">
          <mxGeometry x="400" y="1480" width="120" height="120" as="geometry" />
        </mxCell>
        <mxCell id="oxNlAbWa7UMrTLLy3-Y4-22" style="edgeStyle=orthogonalEdgeStyle;rounded=0;orthogonalLoop=1;jettySize=auto;html=1;exitX=0.5;exitY=1;exitDx=0;exitDy=0;" parent="1" source="oxNlAbWa7UMrTLLy3-Y4-19" edge="1">
          <mxGeometry relative="1" as="geometry">
            <mxPoint x="240" y="1220" as="targetPoint" />
            <Array as="points">
              <mxPoint x="460" y="1760" />
              <mxPoint x="120" y="1760" />
              <mxPoint x="120" y="1220" />
            </Array>
          </mxGeometry>
        </mxCell>
        <mxCell id="oxNlAbWa7UMrTLLy3-Y4-19" value="print login error &lt;br&gt;message" style="shape=parallelogram;html=1;strokeWidth=2;perimeter=parallelogramPerimeter;whiteSpace=wrap;rounded=1;arcSize=12;size=0.23;" parent="1" vertex="1">
          <mxGeometry x="380" y="1640" width="160" height="40" as="geometry" />
        </mxCell>
        <mxCell id="oxNlAbWa7UMrTLLy3-Y4-28" value="" style="edgeStyle=orthogonalEdgeStyle;rounded=0;orthogonalLoop=1;jettySize=auto;html=1;" parent="1" source="oxNlAbWa7UMrTLLy3-Y4-24" target="oxNlAbWa7UMrTLLy3-Y4-27" edge="1">
          <mxGeometry relative="1" as="geometry" />
        </mxCell>
        <mxCell id="oxNlAbWa7UMrTLLy3-Y4-24" value="print menu" style="shape=parallelogram;html=1;strokeWidth=2;perimeter=parallelogramPerimeter;whiteSpace=wrap;rounded=1;arcSize=12;size=0.23;" parent="1" vertex="1">
          <mxGeometry x="600" y="1200" width="160" height="40" as="geometry" />
        </mxCell>
        <mxCell id="OpWjDsvbnIPF4W7kNHAf-6" value="" style="edgeStyle=orthogonalEdgeStyle;rounded=0;orthogonalLoop=1;jettySize=auto;html=1;" parent="1" source="oxNlAbWa7UMrTLLy3-Y4-27" target="OpWjDsvbnIPF4W7kNHAf-5" edge="1">
          <mxGeometry relative="1" as="geometry" />
        </mxCell>
        <mxCell id="OpWjDsvbnIPF4W7kNHAf-7" value="no" style="edgeLabel;html=1;align=center;verticalAlign=middle;resizable=0;points=[];fontSize=14;" parent="OpWjDsvbnIPF4W7kNHAf-6" vertex="1" connectable="0">
          <mxGeometry x="-0.1929" relative="1" as="geometry">
            <mxPoint as="offset" />
          </mxGeometry>
        </mxCell>
        <mxCell id="elQyF4cigWkoirkmCGE0-4" style="edgeStyle=orthogonalEdgeStyle;rounded=0;orthogonalLoop=1;jettySize=auto;html=1;exitX=1;exitY=0.5;exitDx=0;exitDy=0;exitPerimeter=0;entryX=0;entryY=0.5;entryDx=0;entryDy=0;" edge="1" parent="1" source="oxNlAbWa7UMrTLLy3-Y4-27" target="elQyF4cigWkoirkmCGE0-2">
          <mxGeometry relative="1" as="geometry" />
        </mxCell>
        <mxCell id="_fsmck6On5mg5GsBGmYR-2" style="edgeStyle=orthogonalEdgeStyle;rounded=0;orthogonalLoop=1;jettySize=auto;html=1;exitX=1;exitY=0.5;exitDx=0;exitDy=0;exitPerimeter=0;entryX=0;entryY=0.5;entryDx=0;entryDy=0;" edge="1" parent="1" source="oxNlAbWa7UMrTLLy3-Y4-27" target="_fsmck6On5mg5GsBGmYR-1">
          <mxGeometry relative="1" as="geometry" />
        </mxCell>
        <mxCell id="_fsmck6On5mg5GsBGmYR-3" value="yes" style="edgeLabel;html=1;align=center;verticalAlign=middle;resizable=0;points=[];" vertex="1" connectable="0" parent="_fsmck6On5mg5GsBGmYR-2">
          <mxGeometry x="-0.5635" relative="1" as="geometry">
            <mxPoint x="-6" as="offset" />
          </mxGeometry>
        </mxCell>
        <mxCell id="oxNlAbWa7UMrTLLy3-Y4-27" value="sort and display property &lt;br&gt;information?" style="strokeWidth=2;html=1;shape=mxgraph.flowchart.decision;whiteSpace=wrap;" parent="1" vertex="1">
          <mxGeometry x="840" y="1160" width="120" height="120" as="geometry" />
        </mxCell>
        <mxCell id="OpWjDsvbnIPF4W7kNHAf-1" value="load data from csv file" style="rounded=1;whiteSpace=wrap;html=1;absoluteArcSize=1;arcSize=14;strokeWidth=2;" parent="1" vertex="1">
          <mxGeometry x="160" y="1240" width="160" height="40" as="geometry" />
        </mxCell>
        <mxCell id="OpWjDsvbnIPF4W7kNHAf-9" value="" style="edgeStyle=orthogonalEdgeStyle;rounded=0;orthogonalLoop=1;jettySize=auto;html=1;" parent="1" source="OpWjDsvbnIPF4W7kNHAf-5" target="OpWjDsvbnIPF4W7kNHAf-8" edge="1">
          <mxGeometry relative="1" as="geometry" />
        </mxCell>
        <mxCell id="OpWjDsvbnIPF4W7kNHAf-10" value="no" style="edgeLabel;html=1;align=center;verticalAlign=middle;resizable=0;points=[];fontSize=14;" parent="OpWjDsvbnIPF4W7kNHAf-9" vertex="1" connectable="0">
          <mxGeometry x="-0.25" y="-2" relative="1" as="geometry">
            <mxPoint x="1" as="offset" />
          </mxGeometry>
        </mxCell>
        <mxCell id="elQyF4cigWkoirkmCGE0-13" style="edgeStyle=orthogonalEdgeStyle;rounded=0;orthogonalLoop=1;jettySize=auto;html=1;exitX=1;exitY=0.5;exitDx=0;exitDy=0;exitPerimeter=0;entryX=0;entryY=0.5;entryDx=0;entryDy=0;" edge="1" parent="1" source="OpWjDsvbnIPF4W7kNHAf-5" target="elQyF4cigWkoirkmCGE0-11">
          <mxGeometry relative="1" as="geometry" />
        </mxCell>
        <mxCell id="elQyF4cigWkoirkmCGE0-14" style="edgeStyle=orthogonalEdgeStyle;rounded=0;orthogonalLoop=1;jettySize=auto;html=1;exitX=1;exitY=0.5;exitDx=0;exitDy=0;exitPerimeter=0;entryX=0;entryY=0.5;entryDx=0;entryDy=0;" edge="1" parent="1" source="OpWjDsvbnIPF4W7kNHAf-5" target="elQyF4cigWkoirkmCGE0-12">
          <mxGeometry relative="1" as="geometry" />
        </mxCell>
        <mxCell id="elQyF4cigWkoirkmCGE0-15" value="yes" style="edgeLabel;html=1;align=center;verticalAlign=middle;resizable=0;points=[];fontSize=14;" vertex="1" connectable="0" parent="elQyF4cigWkoirkmCGE0-14">
          <mxGeometry x="-0.6786" relative="1" as="geometry">
            <mxPoint as="offset" />
          </mxGeometry>
        </mxCell>
        <mxCell id="OpWjDsvbnIPF4W7kNHAf-5" value="search and display property details?" style="strokeWidth=2;html=1;shape=mxgraph.flowchart.decision;whiteSpace=wrap;" parent="1" vertex="1">
          <mxGeometry x="840" y="1320" width="120" height="120" as="geometry" />
        </mxCell>
        <mxCell id="OpWjDsvbnIPF4W7kNHAf-12" value="" style="edgeStyle=orthogonalEdgeStyle;rounded=0;orthogonalLoop=1;jettySize=auto;html=1;exitX=0.5;exitY=1;exitDx=0;exitDy=0;exitPerimeter=0;" parent="1" source="elQyF4cigWkoirkmCGE0-33" target="OpWjDsvbnIPF4W7kNHAf-11" edge="1">
          <mxGeometry relative="1" as="geometry">
            <mxPoint x="990" y="1830" as="sourcePoint" />
          </mxGeometry>
        </mxCell>
        <mxCell id="OpWjDsvbnIPF4W7kNHAf-13" value="no" style="edgeLabel;html=1;align=center;verticalAlign=middle;resizable=0;points=[];fontSize=14;" parent="OpWjDsvbnIPF4W7kNHAf-12" vertex="1" connectable="0">
          <mxGeometry x="-0.1167" relative="1" as="geometry">
            <mxPoint as="offset" />
          </mxGeometry>
        </mxCell>
        <mxCell id="elQyF4cigWkoirkmCGE0-20" style="edgeStyle=orthogonalEdgeStyle;rounded=0;orthogonalLoop=1;jettySize=auto;html=1;exitX=1;exitY=0.5;exitDx=0;exitDy=0;exitPerimeter=0;entryX=0;entryY=0.5;entryDx=0;entryDy=0;" edge="1" parent="1" source="OpWjDsvbnIPF4W7kNHAf-8" target="elQyF4cigWkoirkmCGE0-19">
          <mxGeometry relative="1" as="geometry" />
        </mxCell>
        <mxCell id="elQyF4cigWkoirkmCGE0-21" value="yes" style="edgeLabel;html=1;align=center;verticalAlign=middle;resizable=0;points=[];fontSize=14;" vertex="1" connectable="0" parent="elQyF4cigWkoirkmCGE0-20">
          <mxGeometry x="-0.1318" relative="1" as="geometry">
            <mxPoint y="-1" as="offset" />
          </mxGeometry>
        </mxCell>
        <mxCell id="elQyF4cigWkoirkmCGE0-34" value="" style="edgeStyle=orthogonalEdgeStyle;rounded=0;orthogonalLoop=1;jettySize=auto;html=1;" edge="1" parent="1" source="OpWjDsvbnIPF4W7kNHAf-8" target="elQyF4cigWkoirkmCGE0-33">
          <mxGeometry relative="1" as="geometry" />
        </mxCell>
        <mxCell id="elQyF4cigWkoirkmCGE0-38" value="no" style="edgeLabel;html=1;align=center;verticalAlign=middle;resizable=0;points=[];" vertex="1" connectable="0" parent="elQyF4cigWkoirkmCGE0-34">
          <mxGeometry x="-0.1927" relative="1" as="geometry">
            <mxPoint as="offset" />
          </mxGeometry>
        </mxCell>
        <mxCell id="OpWjDsvbnIPF4W7kNHAf-8" value="view favourite list?" style="strokeWidth=2;html=1;shape=mxgraph.flowchart.decision;whiteSpace=wrap;" parent="1" vertex="1">
          <mxGeometry x="840" y="1480" width="120" height="120" as="geometry" />
        </mxCell>
        <mxCell id="OpWjDsvbnIPF4W7kNHAf-14" style="edgeStyle=orthogonalEdgeStyle;rounded=0;orthogonalLoop=1;jettySize=auto;html=1;exitX=0;exitY=0.5;exitDx=0;exitDy=0;exitPerimeter=0;" parent="1" source="elQyF4cigWkoirkmCGE0-51" edge="1">
          <mxGeometry relative="1" as="geometry">
            <mxPoint x="800" y="1220" as="targetPoint" />
            <Array as="points">
              <mxPoint x="800" y="2020" />
            </Array>
          </mxGeometry>
        </mxCell>
        <mxCell id="OpWjDsvbnIPF4W7kNHAf-15" value="no" style="edgeLabel;html=1;align=center;verticalAlign=middle;resizable=0;points=[];fontSize=14;" parent="OpWjDsvbnIPF4W7kNHAf-14" vertex="1" connectable="0">
          <mxGeometry x="-0.9137" relative="1" as="geometry">
            <mxPoint x="20" y="-1" as="offset" />
          </mxGeometry>
        </mxCell>
        <mxCell id="elQyF4cigWkoirkmCGE0-23" value="" style="edgeStyle=orthogonalEdgeStyle;rounded=0;orthogonalLoop=1;jettySize=auto;html=1;" edge="1" parent="1" source="OpWjDsvbnIPF4W7kNHAf-11" target="elQyF4cigWkoirkmCGE0-22">
          <mxGeometry relative="1" as="geometry" />
        </mxCell>
        <mxCell id="elQyF4cigWkoirkmCGE0-24" value="yes" style="edgeLabel;html=1;align=center;verticalAlign=middle;resizable=0;points=[];fontSize=14;" vertex="1" connectable="0" parent="elQyF4cigWkoirkmCGE0-23">
          <mxGeometry x="-0.1531" y="-1" relative="1" as="geometry">
            <mxPoint as="offset" />
          </mxGeometry>
        </mxCell>
        <mxCell id="elQyF4cigWkoirkmCGE0-52" value="" style="edgeStyle=orthogonalEdgeStyle;rounded=0;orthogonalLoop=1;jettySize=auto;html=1;" edge="1" parent="1" source="OpWjDsvbnIPF4W7kNHAf-11" target="elQyF4cigWkoirkmCGE0-51">
          <mxGeometry relative="1" as="geometry" />
        </mxCell>
        <mxCell id="elQyF4cigWkoirkmCGE0-53" value="no" style="edgeLabel;html=1;align=center;verticalAlign=middle;resizable=0;points=[];fontSize=14;" vertex="1" connectable="0" parent="elQyF4cigWkoirkmCGE0-52">
          <mxGeometry x="-0.2429" relative="1" as="geometry">
            <mxPoint as="offset" />
          </mxGeometry>
        </mxCell>
        <mxCell id="OpWjDsvbnIPF4W7kNHAf-11" value="view renting history?" style="strokeWidth=2;html=1;shape=mxgraph.flowchart.decision;whiteSpace=wrap;" parent="1" vertex="1">
          <mxGeometry x="840" y="1800" width="120" height="120" as="geometry" />
        </mxCell>
        <mxCell id="_fsmck6On5mg5GsBGmYR-6" style="edgeStyle=orthogonalEdgeStyle;rounded=0;orthogonalLoop=1;jettySize=auto;html=1;exitX=1;exitY=0.5;exitDx=0;exitDy=0;entryX=0;entryY=0.5;entryDx=0;entryDy=0;" edge="1" parent="1" source="elQyF4cigWkoirkmCGE0-2" target="elQyF4cigWkoirkmCGE0-7">
          <mxGeometry relative="1" as="geometry">
            <Array as="points">
              <mxPoint x="1240" y="1260" />
              <mxPoint x="1240" y="1220" />
            </Array>
          </mxGeometry>
        </mxCell>
        <mxCell id="elQyF4cigWkoirkmCGE0-2" value="sort data with quick sort&lt;br&gt;(refer to quick sort)" style="rounded=1;whiteSpace=wrap;html=1;absoluteArcSize=1;arcSize=14;strokeWidth=2;" vertex="1" parent="1">
          <mxGeometry x="1040" y="1240" width="160" height="40" as="geometry" />
        </mxCell>
        <mxCell id="elQyF4cigWkoirkmCGE0-50" style="edgeStyle=orthogonalEdgeStyle;rounded=0;orthogonalLoop=1;jettySize=auto;html=1;exitX=1;exitY=0.5;exitDx=0;exitDy=0;" edge="1" parent="1" source="elQyF4cigWkoirkmCGE0-7">
          <mxGeometry relative="1" as="geometry">
            <mxPoint x="1480" y="1120" as="targetPoint" />
          </mxGeometry>
        </mxCell>
        <mxCell id="elQyF4cigWkoirkmCGE0-7" value="print sorted data" style="shape=parallelogram;html=1;strokeWidth=2;perimeter=parallelogramPerimeter;whiteSpace=wrap;rounded=1;arcSize=12;size=0.23;" vertex="1" parent="1">
          <mxGeometry x="1280" y="1200" width="160" height="40" as="geometry" />
        </mxCell>
        <mxCell id="elQyF4cigWkoirkmCGE0-17" value="" style="edgeStyle=orthogonalEdgeStyle;rounded=0;orthogonalLoop=1;jettySize=auto;html=1;" edge="1" parent="1" source="elQyF4cigWkoirkmCGE0-11" target="elQyF4cigWkoirkmCGE0-16">
          <mxGeometry relative="1" as="geometry" />
        </mxCell>
        <mxCell id="elQyF4cigWkoirkmCGE0-11" value="search data with binary search" style="rounded=1;whiteSpace=wrap;html=1;absoluteArcSize=1;arcSize=14;strokeWidth=2;" vertex="1" parent="1">
          <mxGeometry x="1040" y="1320" width="160" height="40" as="geometry" />
        </mxCell>
        <mxCell id="elQyF4cigWkoirkmCGE0-18" value="" style="edgeStyle=orthogonalEdgeStyle;rounded=0;orthogonalLoop=1;jettySize=auto;html=1;" edge="1" parent="1" source="elQyF4cigWkoirkmCGE0-12" target="elQyF4cigWkoirkmCGE0-16">
          <mxGeometry relative="1" as="geometry" />
        </mxCell>
        <mxCell id="elQyF4cigWkoirkmCGE0-12" value="search data with sentinel linear search" style="rounded=1;whiteSpace=wrap;html=1;absoluteArcSize=1;arcSize=14;strokeWidth=2;" vertex="1" parent="1">
          <mxGeometry x="1040" y="1400" width="160" height="40" as="geometry" />
        </mxCell>
        <mxCell id="elQyF4cigWkoirkmCGE0-26" value="" style="edgeStyle=orthogonalEdgeStyle;rounded=0;orthogonalLoop=1;jettySize=auto;html=1;" edge="1" parent="1" source="elQyF4cigWkoirkmCGE0-16" target="elQyF4cigWkoirkmCGE0-25">
          <mxGeometry relative="1" as="geometry" />
        </mxCell>
        <mxCell id="elQyF4cigWkoirkmCGE0-16" value="print searched &lt;br&gt;data&amp;nbsp;details" style="shape=parallelogram;html=1;strokeWidth=2;perimeter=parallelogramPerimeter;whiteSpace=wrap;rounded=1;arcSize=12;size=0.23;" vertex="1" parent="1">
          <mxGeometry x="1280" y="1360" width="160" height="40" as="geometry" />
        </mxCell>
        <mxCell id="elQyF4cigWkoirkmCGE0-45" style="edgeStyle=orthogonalEdgeStyle;rounded=0;orthogonalLoop=1;jettySize=auto;html=1;exitX=1;exitY=0.5;exitDx=0;exitDy=0;" edge="1" parent="1" source="elQyF4cigWkoirkmCGE0-19">
          <mxGeometry relative="1" as="geometry">
            <mxPoint x="1280" y="1700" as="targetPoint" />
          </mxGeometry>
        </mxCell>
        <mxCell id="elQyF4cigWkoirkmCGE0-19" value="print favourite list" style="shape=parallelogram;html=1;strokeWidth=2;perimeter=parallelogramPerimeter;whiteSpace=wrap;rounded=1;arcSize=12;size=0.23;" vertex="1" parent="1">
          <mxGeometry x="1040" y="1520" width="160" height="40" as="geometry" />
        </mxCell>
        <mxCell id="elQyF4cigWkoirkmCGE0-47" style="edgeStyle=orthogonalEdgeStyle;rounded=0;orthogonalLoop=1;jettySize=auto;html=1;exitX=1;exitY=0.5;exitDx=0;exitDy=0;" edge="1" parent="1" source="elQyF4cigWkoirkmCGE0-22">
          <mxGeometry relative="1" as="geometry">
            <mxPoint x="1280" y="1700" as="targetPoint" />
          </mxGeometry>
        </mxCell>
        <mxCell id="elQyF4cigWkoirkmCGE0-22" value="print renting history" style="shape=parallelogram;html=1;strokeWidth=2;perimeter=parallelogramPerimeter;whiteSpace=wrap;rounded=1;arcSize=12;size=0.23;" vertex="1" parent="1">
          <mxGeometry x="1040" y="1840" width="160" height="40" as="geometry" />
        </mxCell>
        <mxCell id="elQyF4cigWkoirkmCGE0-28" value="" style="edgeStyle=orthogonalEdgeStyle;rounded=0;orthogonalLoop=1;jettySize=auto;html=1;" edge="1" parent="1" source="elQyF4cigWkoirkmCGE0-25" target="elQyF4cigWkoirkmCGE0-27">
          <mxGeometry relative="1" as="geometry" />
        </mxCell>
        <mxCell id="elQyF4cigWkoirkmCGE0-29" value="yes" style="edgeLabel;html=1;align=center;verticalAlign=middle;resizable=0;points=[];fontSize=14;" vertex="1" connectable="0" parent="elQyF4cigWkoirkmCGE0-28">
          <mxGeometry x="-0.2402" relative="1" as="geometry">
            <mxPoint as="offset" />
          </mxGeometry>
        </mxCell>
        <mxCell id="elQyF4cigWkoirkmCGE0-31" value="" style="edgeStyle=orthogonalEdgeStyle;rounded=0;orthogonalLoop=1;jettySize=auto;html=1;" edge="1" parent="1" source="elQyF4cigWkoirkmCGE0-25" target="elQyF4cigWkoirkmCGE0-30">
          <mxGeometry relative="1" as="geometry" />
        </mxCell>
        <mxCell id="elQyF4cigWkoirkmCGE0-32" value="no" style="edgeLabel;html=1;align=center;verticalAlign=middle;resizable=0;points=[];fontSize=14;" vertex="1" connectable="0" parent="elQyF4cigWkoirkmCGE0-31">
          <mxGeometry x="0.0091" y="1" relative="1" as="geometry">
            <mxPoint x="-2" y="-3" as="offset" />
          </mxGeometry>
        </mxCell>
        <mxCell id="elQyF4cigWkoirkmCGE0-25" value="add to favourites?" style="strokeWidth=2;html=1;shape=mxgraph.flowchart.decision;whiteSpace=wrap;" vertex="1" parent="1">
          <mxGeometry x="1520" y="1320" width="120" height="120" as="geometry" />
        </mxCell>
        <mxCell id="elQyF4cigWkoirkmCGE0-43" style="edgeStyle=orthogonalEdgeStyle;rounded=0;orthogonalLoop=1;jettySize=auto;html=1;exitX=1;exitY=0.5;exitDx=0;exitDy=0;" edge="1" parent="1" source="elQyF4cigWkoirkmCGE0-27">
          <mxGeometry relative="1" as="geometry">
            <mxPoint x="600" y="1220" as="targetPoint" />
            <Array as="points">
              <mxPoint x="1920" y="1380" />
              <mxPoint x="1920" y="1120" />
              <mxPoint x="600" y="1120" />
            </Array>
          </mxGeometry>
        </mxCell>
        <mxCell id="elQyF4cigWkoirkmCGE0-27" value="add to favourite list" style="rounded=1;whiteSpace=wrap;html=1;absoluteArcSize=1;arcSize=14;strokeWidth=2;" vertex="1" parent="1">
          <mxGeometry x="1720" y="1360" width="160" height="40" as="geometry" />
        </mxCell>
        <mxCell id="elQyF4cigWkoirkmCGE0-41" value="" style="edgeStyle=orthogonalEdgeStyle;rounded=0;orthogonalLoop=1;jettySize=auto;html=1;" edge="1" parent="1" source="elQyF4cigWkoirkmCGE0-30" target="elQyF4cigWkoirkmCGE0-40">
          <mxGeometry relative="1" as="geometry" />
        </mxCell>
        <mxCell id="elQyF4cigWkoirkmCGE0-42" value="yes" style="edgeLabel;html=1;align=center;verticalAlign=middle;resizable=0;points=[];fontSize=14;" vertex="1" connectable="0" parent="elQyF4cigWkoirkmCGE0-41">
          <mxGeometry x="-0.1189" relative="1" as="geometry">
            <mxPoint as="offset" />
          </mxGeometry>
        </mxCell>
        <mxCell id="elQyF4cigWkoirkmCGE0-48" style="edgeStyle=orthogonalEdgeStyle;rounded=0;orthogonalLoop=1;jettySize=auto;html=1;exitX=0.5;exitY=1;exitDx=0;exitDy=0;exitPerimeter=0;" edge="1" parent="1" source="elQyF4cigWkoirkmCGE0-30">
          <mxGeometry relative="1" as="geometry">
            <mxPoint x="1579.8571428571427" y="1700" as="targetPoint" />
          </mxGeometry>
        </mxCell>
        <mxCell id="elQyF4cigWkoirkmCGE0-49" value="no" style="edgeLabel;html=1;align=center;verticalAlign=middle;resizable=0;points=[];fontSize=14;" vertex="1" connectable="0" parent="elQyF4cigWkoirkmCGE0-48">
          <mxGeometry x="-0.1743" y="-1" relative="1" as="geometry">
            <mxPoint as="offset" />
          </mxGeometry>
        </mxCell>
        <mxCell id="elQyF4cigWkoirkmCGE0-30" value="place rent request?" style="strokeWidth=2;html=1;shape=mxgraph.flowchart.decision;whiteSpace=wrap;" vertex="1" parent="1">
          <mxGeometry x="1520" y="1480" width="120" height="120" as="geometry" />
        </mxCell>
        <mxCell id="elQyF4cigWkoirkmCGE0-36" value="" style="edgeStyle=orthogonalEdgeStyle;rounded=0;orthogonalLoop=1;jettySize=auto;html=1;" edge="1" parent="1" source="elQyF4cigWkoirkmCGE0-33" target="elQyF4cigWkoirkmCGE0-35">
          <mxGeometry relative="1" as="geometry" />
        </mxCell>
        <mxCell id="elQyF4cigWkoirkmCGE0-37" value="yes" style="edgeLabel;html=1;align=center;verticalAlign=middle;resizable=0;points=[];fontSize=14;" vertex="1" connectable="0" parent="elQyF4cigWkoirkmCGE0-36">
          <mxGeometry x="-0.0989" y="2" relative="1" as="geometry">
            <mxPoint as="offset" />
          </mxGeometry>
        </mxCell>
        <mxCell id="elQyF4cigWkoirkmCGE0-33" value="view rent request &lt;br&gt;list?" style="strokeWidth=2;html=1;shape=mxgraph.flowchart.decision;whiteSpace=wrap;" vertex="1" parent="1">
          <mxGeometry x="840" y="1640" width="120" height="120" as="geometry" />
        </mxCell>
        <mxCell id="elQyF4cigWkoirkmCGE0-46" style="edgeStyle=orthogonalEdgeStyle;rounded=0;orthogonalLoop=1;jettySize=auto;html=1;exitX=1;exitY=0.5;exitDx=0;exitDy=0;" edge="1" parent="1" source="elQyF4cigWkoirkmCGE0-35">
          <mxGeometry relative="1" as="geometry">
            <mxPoint x="1920" y="1540" as="targetPoint" />
          </mxGeometry>
        </mxCell>
        <mxCell id="elQyF4cigWkoirkmCGE0-35" value="print rent request list" style="shape=parallelogram;html=1;strokeWidth=2;perimeter=parallelogramPerimeter;whiteSpace=wrap;rounded=1;arcSize=12;size=0.23;" vertex="1" parent="1">
          <mxGeometry x="1040" y="1680" width="160" height="40" as="geometry" />
        </mxCell>
        <mxCell id="elQyF4cigWkoirkmCGE0-44" style="edgeStyle=orthogonalEdgeStyle;rounded=0;orthogonalLoop=1;jettySize=auto;html=1;exitX=1;exitY=0.5;exitDx=0;exitDy=0;" edge="1" parent="1" source="elQyF4cigWkoirkmCGE0-40">
          <mxGeometry relative="1" as="geometry">
            <mxPoint x="1920" y="1380" as="targetPoint" />
          </mxGeometry>
        </mxCell>
        <mxCell id="elQyF4cigWkoirkmCGE0-40" value="add to rent request list" style="rounded=1;whiteSpace=wrap;html=1;absoluteArcSize=1;arcSize=14;strokeWidth=2;" vertex="1" parent="1">
          <mxGeometry x="1720" y="1520" width="160" height="40" as="geometry" />
        </mxCell>
        <mxCell id="elQyF4cigWkoirkmCGE0-55" style="edgeStyle=orthogonalEdgeStyle;rounded=0;orthogonalLoop=1;jettySize=auto;html=1;exitX=1;exitY=0.5;exitDx=0;exitDy=0;exitPerimeter=0;entryX=0;entryY=0.5;entryDx=0;entryDy=0;" edge="1" parent="1" source="elQyF4cigWkoirkmCGE0-51" target="elQyF4cigWkoirkmCGE0-54">
          <mxGeometry relative="1" as="geometry" />
        </mxCell>
        <mxCell id="elQyF4cigWkoirkmCGE0-56" value="yes" style="edgeLabel;html=1;align=center;verticalAlign=middle;resizable=0;points=[];fontSize=14;" vertex="1" connectable="0" parent="elQyF4cigWkoirkmCGE0-55">
          <mxGeometry x="-0.0988" y="2" relative="1" as="geometry">
            <mxPoint as="offset" />
          </mxGeometry>
        </mxCell>
        <mxCell id="elQyF4cigWkoirkmCGE0-51" value="logout?" style="strokeWidth=2;html=1;shape=mxgraph.flowchart.decision;whiteSpace=wrap;" vertex="1" parent="1">
          <mxGeometry x="840" y="1960" width="120" height="120" as="geometry" />
        </mxCell>
        <mxCell id="elQyF4cigWkoirkmCGE0-57" style="edgeStyle=orthogonalEdgeStyle;rounded=0;orthogonalLoop=1;jettySize=auto;html=1;exitX=1;exitY=0.5;exitDx=0;exitDy=0;" edge="1" parent="1" source="elQyF4cigWkoirkmCGE0-54">
          <mxGeometry relative="1" as="geometry">
            <mxPoint x="240" y="1300" as="targetPoint" />
            <Array as="points">
              <mxPoint x="1960" y="2020" />
              <mxPoint x="1960" y="1080" />
              <mxPoint x="340" y="1080" />
              <mxPoint x="340" y="1300" />
            </Array>
          </mxGeometry>
        </mxCell>
        <mxCell id="elQyF4cigWkoirkmCGE0-54" value="logout" style="rounded=1;whiteSpace=wrap;html=1;absoluteArcSize=1;arcSize=14;strokeWidth=2;" vertex="1" parent="1">
          <mxGeometry x="1040" y="2000" width="160" height="40" as="geometry" />
        </mxCell>
        <mxCell id="elQyF4cigWkoirkmCGE0-62" style="edgeStyle=orthogonalEdgeStyle;rounded=0;orthogonalLoop=1;jettySize=auto;html=1;exitX=0.5;exitY=1;exitDx=0;exitDy=0;entryX=0.5;entryY=0;entryDx=0;entryDy=0;entryPerimeter=0;" edge="1" parent="1" source="elQyF4cigWkoirkmCGE0-58" target="elQyF4cigWkoirkmCGE0-61">
          <mxGeometry relative="1" as="geometry" />
        </mxCell>
        <mxCell id="elQyF4cigWkoirkmCGE0-58" value="print menu" style="shape=parallelogram;html=1;strokeWidth=2;perimeter=parallelogramPerimeter;whiteSpace=wrap;rounded=1;arcSize=12;size=0.23;" vertex="1" parent="1">
          <mxGeometry x="600" y="1360" width="160" height="40" as="geometry" />
        </mxCell>
        <mxCell id="elQyF4cigWkoirkmCGE0-64" value="" style="edgeStyle=orthogonalEdgeStyle;rounded=0;orthogonalLoop=1;jettySize=auto;html=1;" edge="1" parent="1" source="elQyF4cigWkoirkmCGE0-61" target="elQyF4cigWkoirkmCGE0-63">
          <mxGeometry relative="1" as="geometry" />
        </mxCell>
        <mxCell id="elQyF4cigWkoirkmCGE0-65" value="yes" style="edgeLabel;html=1;align=center;verticalAlign=middle;resizable=0;points=[];fontSize=14;" vertex="1" connectable="0" parent="elQyF4cigWkoirkmCGE0-64">
          <mxGeometry x="-0.1985" relative="1" as="geometry">
            <mxPoint as="offset" />
          </mxGeometry>
        </mxCell>
        <mxCell id="elQyF4cigWkoirkmCGE0-67" value="" style="edgeStyle=orthogonalEdgeStyle;rounded=0;orthogonalLoop=1;jettySize=auto;html=1;" edge="1" parent="1" source="elQyF4cigWkoirkmCGE0-61" target="elQyF4cigWkoirkmCGE0-66">
          <mxGeometry relative="1" as="geometry" />
        </mxCell>
        <mxCell id="elQyF4cigWkoirkmCGE0-68" value="no" style="edgeLabel;html=1;align=center;verticalAlign=middle;resizable=0;points=[];fontSize=14;" vertex="1" connectable="0" parent="elQyF4cigWkoirkmCGE0-67">
          <mxGeometry x="-0.1412" y="-1" relative="1" as="geometry">
            <mxPoint x="1" as="offset" />
          </mxGeometry>
        </mxCell>
        <mxCell id="elQyF4cigWkoirkmCGE0-61" value="display all tenant details?" style="strokeWidth=2;html=1;shape=mxgraph.flowchart.decision;whiteSpace=wrap;" vertex="1" parent="1">
          <mxGeometry x="620" y="1800" width="120" height="120" as="geometry" />
        </mxCell>
        <mxCell id="elQyF4cigWkoirkmCGE0-116" style="edgeStyle=orthogonalEdgeStyle;rounded=0;orthogonalLoop=1;jettySize=auto;html=1;exitX=0.5;exitY=0;exitDx=0;exitDy=0;" edge="1" parent="1" source="elQyF4cigWkoirkmCGE0-63">
          <mxGeometry relative="1" as="geometry">
            <mxPoint x="590" y="1380" as="targetPoint" />
            <Array as="points">
              <mxPoint x="460" y="1800" />
              <mxPoint x="590" y="1800" />
            </Array>
          </mxGeometry>
        </mxCell>
        <mxCell id="elQyF4cigWkoirkmCGE0-63" value="print all tenant details" style="shape=parallelogram;html=1;strokeWidth=2;perimeter=parallelogramPerimeter;whiteSpace=wrap;rounded=1;arcSize=12;size=0.23;" vertex="1" parent="1">
          <mxGeometry x="380" y="1840" width="160" height="40" as="geometry" />
        </mxCell>
        <mxCell id="elQyF4cigWkoirkmCGE0-70" value="" style="edgeStyle=orthogonalEdgeStyle;rounded=0;orthogonalLoop=1;jettySize=auto;html=1;" edge="1" parent="1" source="elQyF4cigWkoirkmCGE0-66" target="elQyF4cigWkoirkmCGE0-69">
          <mxGeometry relative="1" as="geometry" />
        </mxCell>
        <mxCell id="elQyF4cigWkoirkmCGE0-71" value="yes" style="edgeLabel;html=1;align=center;verticalAlign=middle;resizable=0;points=[];fontSize=14;" vertex="1" connectable="0" parent="elQyF4cigWkoirkmCGE0-70">
          <mxGeometry x="-0.0471" y="-2" relative="1" as="geometry">
            <mxPoint as="offset" />
          </mxGeometry>
        </mxCell>
        <mxCell id="elQyF4cigWkoirkmCGE0-79" value="" style="edgeStyle=orthogonalEdgeStyle;rounded=0;orthogonalLoop=1;jettySize=auto;html=1;" edge="1" parent="1" source="elQyF4cigWkoirkmCGE0-66" target="elQyF4cigWkoirkmCGE0-74">
          <mxGeometry relative="1" as="geometry" />
        </mxCell>
        <mxCell id="elQyF4cigWkoirkmCGE0-80" value="no" style="edgeLabel;html=1;align=center;verticalAlign=middle;resizable=0;points=[];fontSize=14;" vertex="1" connectable="0" parent="elQyF4cigWkoirkmCGE0-79">
          <mxGeometry x="-0.0824" relative="1" as="geometry">
            <mxPoint as="offset" />
          </mxGeometry>
        </mxCell>
        <mxCell id="elQyF4cigWkoirkmCGE0-66" value="search tenant &lt;br&gt;details?" style="strokeWidth=2;html=1;shape=mxgraph.flowchart.decision;whiteSpace=wrap;" vertex="1" parent="1">
          <mxGeometry x="620" y="1960" width="120" height="120" as="geometry" />
        </mxCell>
        <mxCell id="elQyF4cigWkoirkmCGE0-73" value="" style="edgeStyle=orthogonalEdgeStyle;rounded=0;orthogonalLoop=1;jettySize=auto;html=1;" edge="1" parent="1" source="elQyF4cigWkoirkmCGE0-69" target="elQyF4cigWkoirkmCGE0-72">
          <mxGeometry relative="1" as="geometry" />
        </mxCell>
        <mxCell id="elQyF4cigWkoirkmCGE0-69" value="search tenant details" style="rounded=1;whiteSpace=wrap;html=1;absoluteArcSize=1;arcSize=14;strokeWidth=2;" vertex="1" parent="1">
          <mxGeometry x="380" y="2000" width="160" height="40" as="geometry" />
        </mxCell>
        <mxCell id="elQyF4cigWkoirkmCGE0-117" style="edgeStyle=orthogonalEdgeStyle;rounded=0;orthogonalLoop=1;jettySize=auto;html=1;exitX=0.5;exitY=0;exitDx=0;exitDy=0;" edge="1" parent="1" source="elQyF4cigWkoirkmCGE0-72">
          <mxGeometry relative="1" as="geometry">
            <mxPoint x="460" y="1800" as="targetPoint" />
            <Array as="points">
              <mxPoint x="220" y="1800" />
              <mxPoint x="460" y="1800" />
            </Array>
          </mxGeometry>
        </mxCell>
        <mxCell id="elQyF4cigWkoirkmCGE0-72" value="print tenant details" style="shape=parallelogram;html=1;strokeWidth=2;perimeter=parallelogramPerimeter;whiteSpace=wrap;rounded=1;arcSize=12;size=0.23;" vertex="1" parent="1">
          <mxGeometry x="140" y="2000" width="160" height="40" as="geometry" />
        </mxCell>
        <mxCell id="elQyF4cigWkoirkmCGE0-77" value="" style="edgeStyle=orthogonalEdgeStyle;rounded=0;orthogonalLoop=1;jettySize=auto;html=1;" edge="1" parent="1" source="elQyF4cigWkoirkmCGE0-74" target="elQyF4cigWkoirkmCGE0-76">
          <mxGeometry relative="1" as="geometry" />
        </mxCell>
        <mxCell id="elQyF4cigWkoirkmCGE0-78" value="yes" style="edgeLabel;html=1;align=center;verticalAlign=middle;resizable=0;points=[];fontSize=14;" vertex="1" connectable="0" parent="elQyF4cigWkoirkmCGE0-77">
          <mxGeometry x="-0.0618" y="1" relative="1" as="geometry">
            <mxPoint y="-2" as="offset" />
          </mxGeometry>
        </mxCell>
        <mxCell id="elQyF4cigWkoirkmCGE0-83" value="" style="edgeStyle=orthogonalEdgeStyle;rounded=0;orthogonalLoop=1;jettySize=auto;html=1;" edge="1" parent="1" source="elQyF4cigWkoirkmCGE0-74" target="elQyF4cigWkoirkmCGE0-82">
          <mxGeometry relative="1" as="geometry" />
        </mxCell>
        <mxCell id="elQyF4cigWkoirkmCGE0-84" value="no" style="edgeLabel;html=1;align=center;verticalAlign=middle;resizable=0;points=[];fontSize=14;" vertex="1" connectable="0" parent="elQyF4cigWkoirkmCGE0-83">
          <mxGeometry x="-0.2353" y="1" relative="1" as="geometry">
            <mxPoint x="-1" as="offset" />
          </mxGeometry>
        </mxCell>
        <mxCell id="elQyF4cigWkoirkmCGE0-74" value="delete tenant account?" style="strokeWidth=2;html=1;shape=mxgraph.flowchart.decision;whiteSpace=wrap;" vertex="1" parent="1">
          <mxGeometry x="620" y="2120" width="120" height="120" as="geometry" />
        </mxCell>
        <mxCell id="elQyF4cigWkoirkmCGE0-118" style="edgeStyle=orthogonalEdgeStyle;rounded=0;orthogonalLoop=1;jettySize=auto;html=1;exitX=0;exitY=0.5;exitDx=0;exitDy=0;" edge="1" parent="1" source="elQyF4cigWkoirkmCGE0-76">
          <mxGeometry relative="1" as="geometry">
            <mxPoint x="220" y="1800" as="targetPoint" />
            <Array as="points">
              <mxPoint x="120" y="2180" />
              <mxPoint x="120" y="1800" />
            </Array>
          </mxGeometry>
        </mxCell>
        <mxCell id="elQyF4cigWkoirkmCGE0-76" value="delete tenant account" style="rounded=1;whiteSpace=wrap;html=1;absoluteArcSize=1;arcSize=14;strokeWidth=2;" vertex="1" parent="1">
          <mxGeometry x="380" y="2160" width="160" height="40" as="geometry" />
        </mxCell>
        <mxCell id="elQyF4cigWkoirkmCGE0-86" value="" style="edgeStyle=orthogonalEdgeStyle;rounded=0;orthogonalLoop=1;jettySize=auto;html=1;" edge="1" parent="1" source="elQyF4cigWkoirkmCGE0-82" target="elQyF4cigWkoirkmCGE0-85">
          <mxGeometry relative="1" as="geometry" />
        </mxCell>
        <mxCell id="elQyF4cigWkoirkmCGE0-87" value="yes" style="edgeLabel;html=1;align=center;verticalAlign=middle;resizable=0;points=[];fontSize=14;" vertex="1" connectable="0" parent="elQyF4cigWkoirkmCGE0-86">
          <mxGeometry x="-0.1206" y="-1" relative="1" as="geometry">
            <mxPoint as="offset" />
          </mxGeometry>
        </mxCell>
        <mxCell id="elQyF4cigWkoirkmCGE0-100" value="" style="edgeStyle=orthogonalEdgeStyle;rounded=0;orthogonalLoop=1;jettySize=auto;html=1;" edge="1" parent="1" source="elQyF4cigWkoirkmCGE0-82" target="elQyF4cigWkoirkmCGE0-92">
          <mxGeometry relative="1" as="geometry" />
        </mxCell>
        <mxCell id="elQyF4cigWkoirkmCGE0-102" value="no" style="edgeLabel;html=1;align=center;verticalAlign=middle;resizable=0;points=[];fontSize=14;" vertex="1" connectable="0" parent="elQyF4cigWkoirkmCGE0-100">
          <mxGeometry x="-0.4765" y="1" relative="1" as="geometry">
            <mxPoint as="offset" />
          </mxGeometry>
        </mxCell>
        <mxCell id="elQyF4cigWkoirkmCGE0-82" value="summarise top 10 properties?" style="strokeWidth=2;html=1;shape=mxgraph.flowchart.decision;whiteSpace=wrap;" vertex="1" parent="1">
          <mxGeometry x="620" y="2280" width="120" height="120" as="geometry" />
        </mxCell>
        <mxCell id="elQyF4cigWkoirkmCGE0-89" value="" style="edgeStyle=orthogonalEdgeStyle;rounded=0;orthogonalLoop=1;jettySize=auto;html=1;" edge="1" parent="1" source="elQyF4cigWkoirkmCGE0-85" target="elQyF4cigWkoirkmCGE0-88">
          <mxGeometry relative="1" as="geometry" />
        </mxCell>
        <mxCell id="elQyF4cigWkoirkmCGE0-85" value="get and summarise top 10 properties" style="rounded=1;whiteSpace=wrap;html=1;absoluteArcSize=1;arcSize=14;strokeWidth=2;" vertex="1" parent="1">
          <mxGeometry x="380" y="2320" width="160" height="40" as="geometry" />
        </mxCell>
        <mxCell id="elQyF4cigWkoirkmCGE0-91" value="" style="edgeStyle=orthogonalEdgeStyle;rounded=0;orthogonalLoop=1;jettySize=auto;html=1;" edge="1" parent="1" source="elQyF4cigWkoirkmCGE0-88" target="elQyF4cigWkoirkmCGE0-90">
          <mxGeometry relative="1" as="geometry" />
        </mxCell>
        <mxCell id="elQyF4cigWkoirkmCGE0-88" value="generate report" style="rounded=1;whiteSpace=wrap;html=1;absoluteArcSize=1;arcSize=14;strokeWidth=2;" vertex="1" parent="1">
          <mxGeometry x="140" y="2320" width="160" height="40" as="geometry" />
        </mxCell>
        <mxCell id="elQyF4cigWkoirkmCGE0-119" style="edgeStyle=orthogonalEdgeStyle;rounded=0;orthogonalLoop=1;jettySize=auto;html=1;exitX=0.5;exitY=0;exitDx=0;exitDy=0;" edge="1" parent="1" source="elQyF4cigWkoirkmCGE0-90">
          <mxGeometry relative="1" as="geometry">
            <mxPoint x="120" y="1800" as="targetPoint" />
            <Array as="points">
              <mxPoint x="-20" y="1800" />
              <mxPoint x="120" y="1800" />
            </Array>
          </mxGeometry>
        </mxCell>
        <mxCell id="elQyF4cigWkoirkmCGE0-90" value="print report" style="shape=parallelogram;html=1;strokeWidth=2;perimeter=parallelogramPerimeter;whiteSpace=wrap;rounded=1;arcSize=12;size=0.23;" vertex="1" parent="1">
          <mxGeometry x="-100" y="2320" width="160" height="40" as="geometry" />
        </mxCell>
        <mxCell id="elQyF4cigWkoirkmCGE0-97" value="" style="edgeStyle=orthogonalEdgeStyle;rounded=0;orthogonalLoop=1;jettySize=auto;html=1;" edge="1" parent="1" source="elQyF4cigWkoirkmCGE0-92" target="elQyF4cigWkoirkmCGE0-93">
          <mxGeometry relative="1" as="geometry" />
        </mxCell>
        <mxCell id="elQyF4cigWkoirkmCGE0-98" value="yes" style="edgeLabel;html=1;align=center;verticalAlign=middle;resizable=0;points=[];fontSize=14;" vertex="1" connectable="0" parent="elQyF4cigWkoirkmCGE0-97">
          <mxGeometry x="-0.0176" relative="1" as="geometry">
            <mxPoint as="offset" />
          </mxGeometry>
        </mxCell>
        <mxCell id="elQyF4cigWkoirkmCGE0-101" value="" style="edgeStyle=orthogonalEdgeStyle;rounded=0;orthogonalLoop=1;jettySize=auto;html=1;" edge="1" parent="1" source="elQyF4cigWkoirkmCGE0-92" target="elQyF4cigWkoirkmCGE0-94">
          <mxGeometry relative="1" as="geometry" />
        </mxCell>
        <mxCell id="elQyF4cigWkoirkmCGE0-106" value="no" style="edgeLabel;html=1;align=center;verticalAlign=middle;resizable=0;points=[];fontSize=14;" vertex="1" connectable="0" parent="elQyF4cigWkoirkmCGE0-101">
          <mxGeometry x="-0.2061" y="-1" relative="1" as="geometry">
            <mxPoint as="offset" />
          </mxGeometry>
        </mxCell>
        <mxCell id="elQyF4cigWkoirkmCGE0-92" value="manage tenancy process?" style="strokeWidth=2;html=1;shape=mxgraph.flowchart.decision;whiteSpace=wrap;" vertex="1" parent="1">
          <mxGeometry x="620" y="2440" width="120" height="120" as="geometry" />
        </mxCell>
        <mxCell id="elQyF4cigWkoirkmCGE0-120" style="edgeStyle=orthogonalEdgeStyle;rounded=0;orthogonalLoop=1;jettySize=auto;html=1;exitX=0;exitY=0.5;exitDx=0;exitDy=0;" edge="1" parent="1" source="elQyF4cigWkoirkmCGE0-93">
          <mxGeometry relative="1" as="geometry">
            <mxPoint x="-20" y="1800" as="targetPoint" />
            <Array as="points">
              <mxPoint x="-120" y="2500" />
              <mxPoint x="-120" y="1800" />
            </Array>
          </mxGeometry>
        </mxCell>
        <mxCell id="elQyF4cigWkoirkmCGE0-93" value="manage tenancy process" style="rounded=1;whiteSpace=wrap;html=1;absoluteArcSize=1;arcSize=14;strokeWidth=2;" vertex="1" parent="1">
          <mxGeometry x="380" y="2480" width="160" height="40" as="geometry" />
        </mxCell>
        <mxCell id="elQyF4cigWkoirkmCGE0-96" value="" style="edgeStyle=orthogonalEdgeStyle;rounded=0;orthogonalLoop=1;jettySize=auto;html=1;" edge="1" parent="1" source="elQyF4cigWkoirkmCGE0-94" target="elQyF4cigWkoirkmCGE0-95">
          <mxGeometry relative="1" as="geometry" />
        </mxCell>
        <mxCell id="elQyF4cigWkoirkmCGE0-99" value="yes" style="edgeLabel;html=1;align=center;verticalAlign=middle;resizable=0;points=[];fontSize=14;" vertex="1" connectable="0" parent="elQyF4cigWkoirkmCGE0-96">
          <mxGeometry x="0.0412" relative="1" as="geometry">
            <mxPoint as="offset" />
          </mxGeometry>
        </mxCell>
        <mxCell id="elQyF4cigWkoirkmCGE0-110" value="" style="edgeStyle=orthogonalEdgeStyle;rounded=0;orthogonalLoop=1;jettySize=auto;html=1;" edge="1" parent="1" source="elQyF4cigWkoirkmCGE0-94" target="elQyF4cigWkoirkmCGE0-107">
          <mxGeometry relative="1" as="geometry" />
        </mxCell>
        <mxCell id="elQyF4cigWkoirkmCGE0-111" value="no" style="edgeLabel;html=1;align=center;verticalAlign=middle;resizable=0;points=[];fontSize=14;" vertex="1" connectable="0" parent="elQyF4cigWkoirkmCGE0-110">
          <mxGeometry x="-0.1717" y="-1" relative="1" as="geometry">
            <mxPoint as="offset" />
          </mxGeometry>
        </mxCell>
        <mxCell id="elQyF4cigWkoirkmCGE0-94" value="manage payment?" style="strokeWidth=2;html=1;shape=mxgraph.flowchart.decision;whiteSpace=wrap;" vertex="1" parent="1">
          <mxGeometry x="620" y="2600" width="120" height="120" as="geometry" />
        </mxCell>
        <mxCell id="elQyF4cigWkoirkmCGE0-121" style="edgeStyle=orthogonalEdgeStyle;rounded=0;orthogonalLoop=1;jettySize=auto;html=1;exitX=0;exitY=0.5;exitDx=0;exitDy=0;" edge="1" parent="1" source="elQyF4cigWkoirkmCGE0-95">
          <mxGeometry relative="1" as="geometry">
            <mxPoint x="-120" y="2500" as="targetPoint" />
          </mxGeometry>
        </mxCell>
        <mxCell id="elQyF4cigWkoirkmCGE0-95" value="manage payment" style="rounded=1;whiteSpace=wrap;html=1;absoluteArcSize=1;arcSize=14;strokeWidth=2;" vertex="1" parent="1">
          <mxGeometry x="380" y="2640" width="160" height="40" as="geometry" />
        </mxCell>
        <mxCell id="elQyF4cigWkoirkmCGE0-109" value="" style="edgeStyle=orthogonalEdgeStyle;rounded=0;orthogonalLoop=1;jettySize=auto;html=1;" edge="1" parent="1" source="elQyF4cigWkoirkmCGE0-107" target="elQyF4cigWkoirkmCGE0-108">
          <mxGeometry relative="1" as="geometry" />
        </mxCell>
        <mxCell id="elQyF4cigWkoirkmCGE0-112" value="yes" style="edgeLabel;html=1;align=center;verticalAlign=middle;resizable=0;points=[];fontSize=14;" vertex="1" connectable="0" parent="elQyF4cigWkoirkmCGE0-109">
          <mxGeometry x="-0.06" y="-1" relative="1" as="geometry">
            <mxPoint as="offset" />
          </mxGeometry>
        </mxCell>
        <mxCell id="elQyF4cigWkoirkmCGE0-113" style="edgeStyle=orthogonalEdgeStyle;rounded=0;orthogonalLoop=1;jettySize=auto;html=1;exitX=0.5;exitY=1;exitDx=0;exitDy=0;exitPerimeter=0;" edge="1" parent="1" source="elQyF4cigWkoirkmCGE0-107">
          <mxGeometry relative="1" as="geometry">
            <mxPoint x="680" y="1480" as="targetPoint" />
            <Array as="points">
              <mxPoint x="680" y="2920" />
              <mxPoint x="760" y="2920" />
              <mxPoint x="760" y="1480" />
            </Array>
          </mxGeometry>
        </mxCell>
        <mxCell id="elQyF4cigWkoirkmCGE0-114" value="no" style="edgeLabel;html=1;align=center;verticalAlign=middle;resizable=0;points=[];fontSize=14;" vertex="1" connectable="0" parent="elQyF4cigWkoirkmCGE0-113">
          <mxGeometry x="-0.9761" relative="1" as="geometry">
            <mxPoint as="offset" />
          </mxGeometry>
        </mxCell>
        <mxCell id="elQyF4cigWkoirkmCGE0-107" value="logout?" style="strokeWidth=2;html=1;shape=mxgraph.flowchart.decision;whiteSpace=wrap;" vertex="1" parent="1">
          <mxGeometry x="620" y="2760" width="120" height="120" as="geometry" />
        </mxCell>
        <mxCell id="elQyF4cigWkoirkmCGE0-169" style="edgeStyle=orthogonalEdgeStyle;rounded=0;orthogonalLoop=1;jettySize=auto;html=1;exitX=0.5;exitY=1;exitDx=0;exitDy=0;" edge="1" parent="1" source="elQyF4cigWkoirkmCGE0-108">
          <mxGeometry relative="1" as="geometry">
            <mxPoint x="1961" y="2900" as="targetPoint" />
            <Array as="points">
              <mxPoint x="460" y="3000" />
              <mxPoint x="1961" y="3000" />
              <mxPoint x="1961" y="2910" />
            </Array>
          </mxGeometry>
        </mxCell>
        <mxCell id="elQyF4cigWkoirkmCGE0-108" value="logout" style="rounded=1;whiteSpace=wrap;html=1;absoluteArcSize=1;arcSize=14;strokeWidth=2;" vertex="1" parent="1">
          <mxGeometry x="380" y="2800" width="160" height="40" as="geometry" />
        </mxCell>
        <mxCell id="elQyF4cigWkoirkmCGE0-124" style="edgeStyle=orthogonalEdgeStyle;rounded=0;orthogonalLoop=1;jettySize=auto;html=1;jumpStyle=arc;exitX=1;exitY=0.5;exitDx=0;exitDy=0;exitPerimeter=0;jumpSize=12;entryX=0;entryY=0.25;entryDx=0;entryDy=0;" edge="1" parent="1" source="oxNlAbWa7UMrTLLy3-Y4-16" target="elQyF4cigWkoirkmCGE0-126">
          <mxGeometry relative="1" as="geometry">
            <mxPoint x="780" y="2160" as="targetPoint" />
            <mxPoint x="610" y="1530" as="sourcePoint" />
            <Array as="points">
              <mxPoint x="780" y="1540" />
              <mxPoint x="780" y="2133" />
            </Array>
          </mxGeometry>
        </mxCell>
        <mxCell id="elQyF4cigWkoirkmCGE0-128" value="" style="edgeStyle=orthogonalEdgeStyle;rounded=0;orthogonalLoop=1;jettySize=auto;html=1;" edge="1" parent="1" source="elQyF4cigWkoirkmCGE0-126" target="elQyF4cigWkoirkmCGE0-127">
          <mxGeometry relative="1" as="geometry" />
        </mxCell>
        <mxCell id="elQyF4cigWkoirkmCGE0-126" value="print menu" style="shape=parallelogram;html=1;strokeWidth=2;perimeter=parallelogramPerimeter;whiteSpace=wrap;rounded=1;arcSize=12;size=0.23;" vertex="1" parent="1">
          <mxGeometry x="820" y="2120" width="160" height="40" as="geometry" />
        </mxCell>
        <mxCell id="elQyF4cigWkoirkmCGE0-130" value="" style="edgeStyle=orthogonalEdgeStyle;rounded=0;orthogonalLoop=1;jettySize=auto;html=1;" edge="1" parent="1" source="elQyF4cigWkoirkmCGE0-127" target="elQyF4cigWkoirkmCGE0-129">
          <mxGeometry relative="1" as="geometry" />
        </mxCell>
        <mxCell id="elQyF4cigWkoirkmCGE0-140" value="no" style="edgeLabel;html=1;align=center;verticalAlign=middle;resizable=0;points=[];fontSize=14;" vertex="1" connectable="0" parent="elQyF4cigWkoirkmCGE0-130">
          <mxGeometry x="-0.1909" y="-1" relative="1" as="geometry">
            <mxPoint as="offset" />
          </mxGeometry>
        </mxCell>
        <mxCell id="elQyF4cigWkoirkmCGE0-142" value="" style="edgeStyle=orthogonalEdgeStyle;rounded=0;orthogonalLoop=1;jettySize=auto;html=1;" edge="1" parent="1" source="elQyF4cigWkoirkmCGE0-127" target="elQyF4cigWkoirkmCGE0-141">
          <mxGeometry relative="1" as="geometry" />
        </mxCell>
        <mxCell id="elQyF4cigWkoirkmCGE0-159" value="yes" style="edgeLabel;html=1;align=center;verticalAlign=middle;resizable=0;points=[];fontSize=14;" vertex="1" connectable="0" parent="elQyF4cigWkoirkmCGE0-142">
          <mxGeometry x="-0.0821" y="1" relative="1" as="geometry">
            <mxPoint as="offset" />
          </mxGeometry>
        </mxCell>
        <mxCell id="elQyF4cigWkoirkmCGE0-127" value="add new manager?" style="strokeWidth=2;html=1;shape=mxgraph.flowchart.decision;whiteSpace=wrap;" vertex="1" parent="1">
          <mxGeometry x="840" y="2200" width="120" height="120" as="geometry" />
        </mxCell>
        <mxCell id="elQyF4cigWkoirkmCGE0-132" value="" style="edgeStyle=orthogonalEdgeStyle;rounded=0;orthogonalLoop=1;jettySize=auto;html=1;" edge="1" parent="1" source="elQyF4cigWkoirkmCGE0-129" target="elQyF4cigWkoirkmCGE0-131">
          <mxGeometry relative="1" as="geometry" />
        </mxCell>
        <mxCell id="elQyF4cigWkoirkmCGE0-139" value="no" style="edgeLabel;html=1;align=center;verticalAlign=middle;resizable=0;points=[];fontSize=14;" vertex="1" connectable="0" parent="elQyF4cigWkoirkmCGE0-132">
          <mxGeometry x="-0.0576" y="-1" relative="1" as="geometry">
            <mxPoint as="offset" />
          </mxGeometry>
        </mxCell>
        <mxCell id="elQyF4cigWkoirkmCGE0-144" value="" style="edgeStyle=orthogonalEdgeStyle;rounded=0;orthogonalLoop=1;jettySize=auto;html=1;" edge="1" parent="1" source="elQyF4cigWkoirkmCGE0-129" target="elQyF4cigWkoirkmCGE0-143">
          <mxGeometry relative="1" as="geometry" />
        </mxCell>
        <mxCell id="elQyF4cigWkoirkmCGE0-158" value="yes" style="edgeLabel;html=1;align=center;verticalAlign=middle;resizable=0;points=[];fontSize=14;" vertex="1" connectable="0" parent="elQyF4cigWkoirkmCGE0-144">
          <mxGeometry x="-0.1357" y="-1" relative="1" as="geometry">
            <mxPoint as="offset" />
          </mxGeometry>
        </mxCell>
        <mxCell id="elQyF4cigWkoirkmCGE0-129" value="modify manager status?" style="strokeWidth=2;html=1;shape=mxgraph.flowchart.decision;whiteSpace=wrap;" vertex="1" parent="1">
          <mxGeometry x="840" y="2360" width="120" height="120" as="geometry" />
        </mxCell>
        <mxCell id="elQyF4cigWkoirkmCGE0-134" value="" style="edgeStyle=orthogonalEdgeStyle;rounded=0;orthogonalLoop=1;jettySize=auto;html=1;" edge="1" parent="1" source="elQyF4cigWkoirkmCGE0-131" target="elQyF4cigWkoirkmCGE0-133">
          <mxGeometry relative="1" as="geometry" />
        </mxCell>
        <mxCell id="elQyF4cigWkoirkmCGE0-138" value="no" style="edgeLabel;html=1;align=center;verticalAlign=middle;resizable=0;points=[];fontSize=14;" vertex="1" connectable="0" parent="elQyF4cigWkoirkmCGE0-134">
          <mxGeometry x="-0.1424" y="1" relative="1" as="geometry">
            <mxPoint as="offset" />
          </mxGeometry>
        </mxCell>
        <mxCell id="elQyF4cigWkoirkmCGE0-147" value="" style="edgeStyle=orthogonalEdgeStyle;rounded=0;orthogonalLoop=1;jettySize=auto;html=1;" edge="1" parent="1" source="elQyF4cigWkoirkmCGE0-131" target="elQyF4cigWkoirkmCGE0-145">
          <mxGeometry relative="1" as="geometry" />
        </mxCell>
        <mxCell id="elQyF4cigWkoirkmCGE0-157" value="yes" style="edgeLabel;html=1;align=center;verticalAlign=middle;resizable=0;points=[];fontSize=14;" vertex="1" connectable="0" parent="elQyF4cigWkoirkmCGE0-147">
          <mxGeometry x="-0.0821" y="1" relative="1" as="geometry">
            <mxPoint as="offset" />
          </mxGeometry>
        </mxCell>
        <mxCell id="elQyF4cigWkoirkmCGE0-131" value="display all &lt;br&gt;tenant information &lt;br&gt;with filter?" style="strokeWidth=2;html=1;shape=mxgraph.flowchart.decision;whiteSpace=wrap;" vertex="1" parent="1">
          <mxGeometry x="840" y="2520" width="120" height="120" as="geometry" />
        </mxCell>
        <mxCell id="elQyF4cigWkoirkmCGE0-136" value="" style="edgeStyle=orthogonalEdgeStyle;rounded=0;orthogonalLoop=1;jettySize=auto;html=1;" edge="1" parent="1" source="elQyF4cigWkoirkmCGE0-133" target="elQyF4cigWkoirkmCGE0-135">
          <mxGeometry relative="1" as="geometry" />
        </mxCell>
        <mxCell id="elQyF4cigWkoirkmCGE0-137" value="no" style="edgeLabel;html=1;align=center;verticalAlign=middle;resizable=0;points=[];fontSize=14;" vertex="1" connectable="0" parent="elQyF4cigWkoirkmCGE0-136">
          <mxGeometry x="-0.0515" y="-1" relative="1" as="geometry">
            <mxPoint as="offset" />
          </mxGeometry>
        </mxCell>
        <mxCell id="elQyF4cigWkoirkmCGE0-151" value="" style="edgeStyle=orthogonalEdgeStyle;rounded=0;orthogonalLoop=1;jettySize=auto;html=1;" edge="1" parent="1" source="elQyF4cigWkoirkmCGE0-133" target="elQyF4cigWkoirkmCGE0-149">
          <mxGeometry relative="1" as="geometry" />
        </mxCell>
        <mxCell id="elQyF4cigWkoirkmCGE0-156" value="yes" style="edgeLabel;html=1;align=center;verticalAlign=middle;resizable=0;points=[];fontSize=14;" vertex="1" connectable="0" parent="elQyF4cigWkoirkmCGE0-151">
          <mxGeometry x="-0.2071" y="1" relative="1" as="geometry">
            <mxPoint as="offset" />
          </mxGeometry>
        </mxCell>
        <mxCell id="elQyF4cigWkoirkmCGE0-133" value="display all &lt;br&gt;property information &lt;br&gt;with filter?" style="strokeWidth=2;html=1;shape=mxgraph.flowchart.decision;whiteSpace=wrap;" vertex="1" parent="1">
          <mxGeometry x="840" y="2680" width="120" height="120" as="geometry" />
        </mxCell>
        <mxCell id="elQyF4cigWkoirkmCGE0-154" value="" style="edgeStyle=orthogonalEdgeStyle;rounded=0;orthogonalLoop=1;jettySize=auto;html=1;" edge="1" parent="1" source="elQyF4cigWkoirkmCGE0-135" target="elQyF4cigWkoirkmCGE0-153">
          <mxGeometry relative="1" as="geometry" />
        </mxCell>
        <mxCell id="elQyF4cigWkoirkmCGE0-155" value="yes" style="edgeLabel;html=1;align=center;verticalAlign=middle;resizable=0;points=[];fontSize=14;" vertex="1" connectable="0" parent="elQyF4cigWkoirkmCGE0-154">
          <mxGeometry x="-0.0821" y="-1" relative="1" as="geometry">
            <mxPoint as="offset" />
          </mxGeometry>
        </mxCell>
        <mxCell id="elQyF4cigWkoirkmCGE0-160" style="edgeStyle=orthogonalEdgeStyle;rounded=0;orthogonalLoop=1;jettySize=auto;html=1;exitX=0;exitY=0.5;exitDx=0;exitDy=0;exitPerimeter=0;" edge="1" parent="1" source="elQyF4cigWkoirkmCGE0-135">
          <mxGeometry relative="1" as="geometry">
            <mxPoint x="900" y="2180" as="targetPoint" />
            <Array as="points">
              <mxPoint x="800" y="2900" />
              <mxPoint x="800" y="2180" />
            </Array>
          </mxGeometry>
        </mxCell>
        <mxCell id="elQyF4cigWkoirkmCGE0-161" value="no" style="edgeLabel;html=1;align=center;verticalAlign=middle;resizable=0;points=[];fontSize=14;" vertex="1" connectable="0" parent="elQyF4cigWkoirkmCGE0-160">
          <mxGeometry x="-0.9582" relative="1" as="geometry">
            <mxPoint as="offset" />
          </mxGeometry>
        </mxCell>
        <mxCell id="elQyF4cigWkoirkmCGE0-135" value="logout?" style="strokeWidth=2;html=1;shape=mxgraph.flowchart.decision;whiteSpace=wrap;" vertex="1" parent="1">
          <mxGeometry x="840" y="2840" width="120" height="120" as="geometry" />
        </mxCell>
        <mxCell id="elQyF4cigWkoirkmCGE0-164" style="edgeStyle=orthogonalEdgeStyle;rounded=0;orthogonalLoop=1;jettySize=auto;html=1;exitX=0.5;exitY=0;exitDx=0;exitDy=0;" edge="1" parent="1" source="elQyF4cigWkoirkmCGE0-141">
          <mxGeometry relative="1" as="geometry">
            <mxPoint x="1119.8571428571427" y="2100" as="targetPoint" />
          </mxGeometry>
        </mxCell>
        <mxCell id="elQyF4cigWkoirkmCGE0-141" value="add new manager" style="rounded=1;whiteSpace=wrap;html=1;absoluteArcSize=1;arcSize=14;strokeWidth=2;" vertex="1" parent="1">
          <mxGeometry x="1040" y="2240" width="160" height="40" as="geometry" />
        </mxCell>
        <mxCell id="elQyF4cigWkoirkmCGE0-165" style="edgeStyle=orthogonalEdgeStyle;rounded=0;orthogonalLoop=1;jettySize=auto;html=1;exitX=1;exitY=0.5;exitDx=0;exitDy=0;" edge="1" parent="1" source="elQyF4cigWkoirkmCGE0-143">
          <mxGeometry relative="1" as="geometry">
            <mxPoint x="1240" y="2100" as="targetPoint" />
          </mxGeometry>
        </mxCell>
        <mxCell id="elQyF4cigWkoirkmCGE0-143" value="modify manager status" style="rounded=1;whiteSpace=wrap;html=1;absoluteArcSize=1;arcSize=14;strokeWidth=2;" vertex="1" parent="1">
          <mxGeometry x="1040" y="2400" width="160" height="40" as="geometry" />
        </mxCell>
        <mxCell id="elQyF4cigWkoirkmCGE0-148" value="" style="edgeStyle=orthogonalEdgeStyle;rounded=0;orthogonalLoop=1;jettySize=auto;html=1;" edge="1" parent="1" source="elQyF4cigWkoirkmCGE0-145" target="elQyF4cigWkoirkmCGE0-146">
          <mxGeometry relative="1" as="geometry" />
        </mxCell>
        <mxCell id="elQyF4cigWkoirkmCGE0-145" value="filter all tenant information" style="rounded=1;whiteSpace=wrap;html=1;absoluteArcSize=1;arcSize=14;strokeWidth=2;" vertex="1" parent="1">
          <mxGeometry x="1040" y="2560" width="160" height="40" as="geometry" />
        </mxCell>
        <mxCell id="elQyF4cigWkoirkmCGE0-163" style="edgeStyle=orthogonalEdgeStyle;rounded=0;orthogonalLoop=1;jettySize=auto;html=1;exitX=1;exitY=0.5;exitDx=0;exitDy=0;" edge="1" parent="1" source="elQyF4cigWkoirkmCGE0-146">
          <mxGeometry relative="1" as="geometry">
            <mxPoint x="800" y="2130" as="targetPoint" />
            <Array as="points">
              <mxPoint x="1480" y="2580" />
              <mxPoint x="1480" y="2100" />
              <mxPoint x="800" y="2100" />
            </Array>
          </mxGeometry>
        </mxCell>
        <mxCell id="elQyF4cigWkoirkmCGE0-146" value="print filtered tenant information" style="shape=parallelogram;html=1;strokeWidth=2;perimeter=parallelogramPerimeter;whiteSpace=wrap;rounded=1;arcSize=12;size=0.23;" vertex="1" parent="1">
          <mxGeometry x="1280" y="2560" width="160" height="40" as="geometry" />
        </mxCell>
        <mxCell id="elQyF4cigWkoirkmCGE0-152" value="" style="edgeStyle=orthogonalEdgeStyle;rounded=0;orthogonalLoop=1;jettySize=auto;html=1;" edge="1" parent="1" source="elQyF4cigWkoirkmCGE0-149" target="elQyF4cigWkoirkmCGE0-150">
          <mxGeometry relative="1" as="geometry" />
        </mxCell>
        <mxCell id="elQyF4cigWkoirkmCGE0-149" value="filter all property information" style="rounded=1;whiteSpace=wrap;html=1;absoluteArcSize=1;arcSize=14;strokeWidth=2;" vertex="1" parent="1">
          <mxGeometry x="1040" y="2720" width="160" height="40" as="geometry" />
        </mxCell>
        <mxCell id="elQyF4cigWkoirkmCGE0-166" style="edgeStyle=orthogonalEdgeStyle;rounded=0;orthogonalLoop=1;jettySize=auto;html=1;exitX=1;exitY=0.5;exitDx=0;exitDy=0;" edge="1" parent="1" source="elQyF4cigWkoirkmCGE0-150">
          <mxGeometry relative="1" as="geometry">
            <mxPoint x="1480" y="2580" as="targetPoint" />
          </mxGeometry>
        </mxCell>
        <mxCell id="elQyF4cigWkoirkmCGE0-150" value="print filtered property information" style="shape=parallelogram;html=1;strokeWidth=2;perimeter=parallelogramPerimeter;whiteSpace=wrap;rounded=1;arcSize=12;size=0.23;" vertex="1" parent="1">
          <mxGeometry x="1280" y="2720" width="160" height="40" as="geometry" />
        </mxCell>
        <mxCell id="elQyF4cigWkoirkmCGE0-168" style="edgeStyle=orthogonalEdgeStyle;rounded=0;orthogonalLoop=1;jettySize=auto;html=1;exitX=1;exitY=0.5;exitDx=0;exitDy=0;" edge="1" parent="1" source="elQyF4cigWkoirkmCGE0-153">
          <mxGeometry relative="1" as="geometry">
            <mxPoint x="1960" y="2020" as="targetPoint" />
          </mxGeometry>
        </mxCell>
        <mxCell id="elQyF4cigWkoirkmCGE0-153" value="logout" style="rounded=1;whiteSpace=wrap;html=1;absoluteArcSize=1;arcSize=14;strokeWidth=2;" vertex="1" parent="1">
          <mxGeometry x="1040" y="2880" width="160" height="40" as="geometry" />
        </mxCell>
        <mxCell id="elQyF4cigWkoirkmCGE0-175" value="" style="edgeStyle=orthogonalEdgeStyle;rounded=0;orthogonalLoop=1;jettySize=auto;html=1;" edge="1" parent="1" source="elQyF4cigWkoirkmCGE0-171" target="elQyF4cigWkoirkmCGE0-174">
          <mxGeometry relative="1" as="geometry" />
        </mxCell>
        <mxCell id="elQyF4cigWkoirkmCGE0-176" value="yes" style="edgeLabel;html=1;align=center;verticalAlign=middle;resizable=0;points=[];fontSize=14;" vertex="1" connectable="0" parent="elQyF4cigWkoirkmCGE0-175">
          <mxGeometry x="-0.1" relative="1" as="geometry">
            <mxPoint as="offset" />
          </mxGeometry>
        </mxCell>
        <mxCell id="elQyF4cigWkoirkmCGE0-171" value="exit?" style="strokeWidth=2;html=1;shape=mxgraph.flowchart.decision;whiteSpace=wrap;" vertex="1" parent="1">
          <mxGeometry x="-80" y="1660" width="120" height="120" as="geometry" />
        </mxCell>
        <mxCell id="oxNlAbWa7UMrTLLy3-Y4-7" style="edgeStyle=orthogonalEdgeStyle;rounded=0;orthogonalLoop=1;jettySize=auto;html=1;exitX=0.5;exitY=1;exitDx=0;exitDy=0;exitPerimeter=0;entryX=1;entryY=0.5;entryDx=0;entryDy=0;entryPerimeter=0;jumpStyle=arc;jumpSize=12;" parent="1" source="oxNlAbWa7UMrTLLy3-Y4-4" edge="1" target="elQyF4cigWkoirkmCGE0-171">
          <mxGeometry relative="1" as="geometry">
            <mxPoint x="70" y="1720" as="targetPoint" />
            <Array as="points">
              <mxPoint x="240" y="1720" />
            </Array>
          </mxGeometry>
        </mxCell>
        <mxCell id="oxNlAbWa7UMrTLLy3-Y4-8" value="no" style="edgeLabel;html=1;align=center;verticalAlign=middle;resizable=0;points=[];fontSize=14;" parent="oxNlAbWa7UMrTLLy3-Y4-7" vertex="1" connectable="0">
          <mxGeometry x="-0.9358" y="1" relative="1" as="geometry">
            <mxPoint as="offset" />
          </mxGeometry>
        </mxCell>
        <mxCell id="elQyF4cigWkoirkmCGE0-172" style="edgeStyle=orthogonalEdgeStyle;rounded=0;orthogonalLoop=1;jettySize=auto;html=1;exitX=0.5;exitY=0;exitDx=0;exitDy=0;exitPerimeter=0;jumpStyle=arc;jumpSize=12;" edge="1" parent="1" source="elQyF4cigWkoirkmCGE0-171">
          <mxGeometry relative="1" as="geometry">
            <mxPoint x="240" y="1380" as="targetPoint" />
            <Array as="points">
              <mxPoint x="-20" y="1380" />
            </Array>
          </mxGeometry>
        </mxCell>
        <mxCell id="elQyF4cigWkoirkmCGE0-173" value="no" style="edgeLabel;html=1;align=center;verticalAlign=middle;resizable=0;points=[];fontSize=14;" vertex="1" connectable="0" parent="elQyF4cigWkoirkmCGE0-172">
          <mxGeometry x="-0.8309" y="2" relative="1" as="geometry">
            <mxPoint as="offset" />
          </mxGeometry>
        </mxCell>
        <mxCell id="elQyF4cigWkoirkmCGE0-174" value="END" style="html=1;dashed=0;whiteSpace=wrap;shape=mxgraph.dfd.start;strokeWidth=2;" vertex="1" parent="1">
          <mxGeometry x="-320" y="1700" width="160" height="40" as="geometry" />
        </mxCell>
        <mxCell id="_fsmck6On5mg5GsBGmYR-5" style="edgeStyle=orthogonalEdgeStyle;rounded=0;orthogonalLoop=1;jettySize=auto;html=1;exitX=1;exitY=0.5;exitDx=0;exitDy=0;" edge="1" parent="1" source="_fsmck6On5mg5GsBGmYR-1" target="elQyF4cigWkoirkmCGE0-7">
          <mxGeometry relative="1" as="geometry" />
        </mxCell>
        <mxCell id="_fsmck6On5mg5GsBGmYR-1" value="sort data with radix sort&lt;br&gt;(refer to radix sort)" style="rounded=1;whiteSpace=wrap;html=1;absoluteArcSize=1;arcSize=14;strokeWidth=2;" vertex="1" parent="1">
          <mxGeometry x="1040" y="1160" width="160" height="40" as="geometry" />
        </mxCell>
      </root>
    </mxGraphModel>
  </diagram>
</mxfile>
